<?xml version="1.0" encoding="UTF-8"?>
<svg width="2241px" height="798px" viewBox="0 0 2241 798" version="1.1" xmlns="http://www.w3.org/2000/svg" xmlns:xlink="http://www.w3.org/1999/xlink">
    <!-- Generator: Sketch 47 (45396) - http://www.bohemiancoding.com/sketch -->
    <title>Asset 3</title>
    <desc>Created with Sketch.</desc>
    <defs></defs>
    <g id="Page-1" stroke="none" stroke-width="1" fill="none" fill-rule="evenodd" opacity="0.201766304">
        <g id="Webpage_Full" transform="translate(0.000000, -421.000000)" fill-rule="nonzero" fill="#3BBC5C">
            <g id="Asset-3" transform="translate(-200.000000, 339.000000)">
                <path d="M2385.24234,378.875617 C2385.97391,377.736053 2386.86805,377.426742 2391.22495,382.473386 C2389.1603,381.138467 2387.20945,380.06402 2385.24234,378.875617 C2384.49452,379.917505 2383.86049,381.708249 2380.75539,380.747759 C2405.08966,392.334601 2428.40851,405.948752 2450.46578,421.446497 C2454.80643,421.67441 2459.00076,421.951162 2463,422 L2457.79773,418.109201 L2452.51418,414.332358 L2441.96333,406.794952 L2431.28242,399.518017 L2425.95009,395.903969 L2420.55274,392.420157 L2409.79055,385.517651 L2398.93081,379.005853 L2393.5172,375.749954 L2388.05482,372.67313 L2377.16257,366.633437 C2348.01361,351.167917 2318.75085,339.283885 2291,333 C2326.58677,349.702762 2352.43554,359.226267 2385.24234,378.875617 Z" id="Shape"></path>
                <path d="M1338.44668,513.502722 C1334.14279,516.469691 1330.05004,519.582577 1326.07097,522.744102 C1322.09191,525.905626 1318.21029,529.050938 1314.42612,532.244888 C1306.93898,538.730067 1299.90659,545.377374 1293.10158,552.024682 C1286.29656,558.67199 1279.91382,565.675983 1273.61228,572.679976 L1264.25742,583.299456 C1261.15537,586.833878 1258.06956,590.352087 1255,594 C1258.62176,590.579068 1262.29225,587.336479 1265.96273,584.061464 L1277.00667,574.252632 C1284.4126,567.897157 1291.81853,561.590321 1299.27319,555.413188 L1310.51202,546.366364 C1314.24747,543.366969 1317.95043,540.335148 1321.76709,537.465457 L1333.0384,528.791531 L1338.64157,524.4951 L1344.29347,520.328373 C1374.1933,498.035572 1403.3298,478.028796 1428,460 C1397.57504,476.915507 1367.72393,494.749748 1338.44668,513.502722 Z" id="Shape"></path>
                <path d="M1126,739 C1128.87507,736.957996 1131.6961,734.910589 1134.46309,732.857781 C1137.21927,730.815776 1139.86195,728.773772 1142.56949,726.731768 C1147.80623,722.631553 1152.88084,718.515131 1157.72847,714.39871 C1167.29403,706.295518 1176.30836,697.916818 1184.52825,689.79742 C1188.66252,685.713412 1192.63466,681.59699 1196.57437,677.496775 C1200.51409,673.39656 1204.17818,669.393584 1207.92334,665.309575 C1215.28396,657.092939 1222.17441,649.103192 1229,641 C1197.88761,669.296345 1166.53203,698.75955 1133.76594,728.352406 C1131.09082,731.852985 1128.33465,735.531834 1126,739 Z" id="Shape"></path>
                <path d="M1164,689 C1202.31579,656.813942 1228.54386,624.838886 1255,594 C1222.66638,623.702836 1192.27109,655.434174 1164,689 Z" id="Shape"></path>
                <path d="M1987.28416,114.36801 C2006.24284,111.270559 2021.62748,109.638569 2033.86046,108.789268 C2039.96882,108.40625 2045.31364,108.173109 2049.9599,108.039885 C2054.60616,107.906661 2058.48887,108.039885 2061.78674,108.189762 C2070.03656,104.701898 2078.45151,101.639473 2087,99.0139803 L2080.19307,98.1313734 C2075.20565,97.9648438 2070.18575,98.0481086 2065.16584,98.0148026 C2060.14593,97.9814967 2055.14227,98.0148026 2050.10611,98.0148026 C2040.03381,98.264597 2029.97774,98.3478618 2019.8567,98.9307155 C1999.66335,99.7134046 1979.34003,101.495271 1959.03296,103.660156 C1950.74768,105.458676 1942.70608,107.157278 1935.11935,109.255551 C1927.53263,111.353824 1920.41703,113.552015 1914,116 C1938.49845,114.567845 1963.02939,114.151521 1987.28416,114.36801 Z" id="Shape"></path>
                <path d="M2062.17076,108 C2048.99045,113.266419 2045.84365,116.307816 2047.34291,117.396315 C2048.84217,118.484815 2055.36642,117.988587 2061.84125,116.804043 C2068.31607,115.619499 2074.88975,113.602573 2076.57024,112.001838 C2077.42696,111.137441 2077.0645,110.289051 2074.9227,109.536706 C2070.74876,108.540493 2066.46871,108.024715 2062.17076,108 Z" id="Shape"></path>
                <path d="M1843,258 L1838.30504,259.115044 C1833.91247,260.743363 1829.36074,262.300885 1825,264 C1831.07958,261.911504 1836.95225,260.035398 1843,258 Z" id="Shape"></path>
                <path d="M1440.93264,336.595399 L1519,296 C1465.07702,321.542625 1411.60867,350.138024 1371,380 C1377.49479,376.346414 1385.19111,374.917456 1391.73461,371.410014 C1394.4949,368.698241 1397.67735,365.742896 1401.217,362.70636 C1404.75666,359.669824 1408.68601,356.649526 1412.89139,353.580514 C1417.09676,350.511502 1421.54569,347.426252 1426.25442,344.584574 C1430.96314,341.742896 1435.88294,339.047361 1440.93264,336.595399 Z" id="Shape"></path>
                <path d="M2064.95596,228.361935 C2060.08858,228.037514 2055.05895,228.005071 2050.12667,227.859082 C2045.19439,227.713092 2040.27833,227.583324 2035.34605,227.664429 C2030.41376,227.745534 2025.51393,227.664429 2020.63032,227.777977 L2006.02817,228.297051 C2003.59448,228.361935 2001.16079,228.486296 1998.7271,228.670135 L1991.44225,229.156767 L1984.18985,229.643399 C1981.77238,229.805609 1979.32246,230.097588 1976.95367,230.308462 C1972.08628,230.795094 1967.3487,231.216842 1962.56244,231.752137 L1948.28478,233.601338 C1943.53097,234.152854 1938.82583,235.061233 1934.12069,235.77496 C1929.41556,236.488687 1924.72664,237.267298 1920.0864,238.240562 L1906.18191,240.981921 L1892.40722,244.096365 C1874.1383,248.459831 1856.22633,253.553244 1838.68753,259.230616 C1765.80657,274.900162 1696.28411,300.983629 1630.57443,329.954446 C1564.86476,358.925262 1504.02246,391.88646 1450.82196,429.048913 C1427.60454,445.789049 1399.63331,464.216176 1370.28299,484.800703 C1340.93267,505.385231 1310.25192,528.062275 1281.32344,552.702068 C1252.47821,577.235691 1225.14389,603.491477 1199.47028,631.325556 C1174.53305,658.447171 1152.4189,685.76344 1135.41551,711.58737 C1145.84793,704.109461 1155.30688,696.647772 1164.19797,689.153642 C1158.60048,695.85294 1153.31126,702.471133 1148.2005,709.073106 C1143.08975,715.675078 1138.18992,722.212166 1133.59835,728.68437 L1119.71008,741.093482 L1112.76595,747.289928 L1105.6758,753.486373 L1091.47926,765.830601 L1076.87711,778.142387 L1069.57603,784.29017 L1062.09649,790.389289 L1047.08872,802.555086 L1031.64289,814.54245 L1023.90375,820.528022 L1015.93747,826.400047 L999.940001,838.111653 L983.439571,849.466397 L975.165019,855.143769 L966.54975,860.869803 C960.790013,864.681753 954.86803,868.266608 948.994721,871.948789 C925.149288,886.520602 900.521068,899.771552 875.221411,911.641727 C849.294588,923.809066 822.621847,934.319793 795.363872,943.110587 C781.556728,947.636264 767.360193,951.54554 752.985187,955.130394 C745.732785,956.752501 738.529058,958.585481 731.130635,959.996713 C723.732212,961.407945 716.350013,962.835399 708.870467,964.100642 C693.862702,966.485138 678.66024,968.464107 663.100838,969.550918 C655.377923,970.232203 647.508986,970.475519 639.672499,970.816161 C635.746143,970.94593 631.771113,970.929709 627.812307,970.978372 C623.853502,971.027035 619.894697,970.978372 615.887218,970.978372 L603.89723,970.63773 L591.826119,969.891561 L585.790563,969.469813 L579.722558,968.869634 C575.68263,968.447886 571.610253,968.074802 567.586549,967.571949 C559.474243,966.436475 551.361937,965.414548 543.249631,963.841105 C539.177254,963.062494 535.137325,962.429872 531.064948,961.505272 L518.880265,958.780133 L504.813526,955.454816 L498.015414,953.930036 L491.347098,952.30793 C486.950229,951.23734 482.569584,950.361402 478.270061,949.225928 L465.420169,945.981715 C456.886023,943.710767 448.416776,941.115397 439.947529,938.065837 C431.165424,934.908929 422.59711,931.18651 414.296418,926.921968 C397.294853,918.304531 380.750672,908.813335 364.730229,898.486446 C356.942415,893.50658 349.446645,888.380724 342.015772,883.222427 C334.5849,878.064129 327.575868,872.808505 320.664183,867.358228 C320.258568,867.666428 320.291017,868.331492 320.761531,869.320977 L309.874817,860.950909 C306.272953,858.128444 302.541292,855.435748 299.117899,852.451072 L278.220599,834.85122 C271.454936,828.816985 264.835295,822.63676 258.150755,816.505199 L253.169799,811.882196 L248.302415,807.113204 L238.729894,797.558999 C213.542063,772.020417 189.97582,744.932482 168.169058,716.453689 C146.687467,687.965525 126.798172,658.3114 108.592284,627.627154 C90.1251374,596.771477 73.335339,564.942818 58.2959877,532.279751 C44.8806621,501.330453 33.5627858,469.51402 24.4189985,437.045897 C15.3169913,404.960636 8.06458992,372.729386 1.46117296,340.692789 C-3.40621055,316.620733 5.50110127,314.998627 4.85211681,298.745123 C4.75476914,290.634592 4.93323986,282.686271 5.07926137,275.013709 C5.22528288,267.341147 5.29018132,259.830795 5.61467356,252.482654 L6.29610725,230.681547 L7.12356244,209.156197 C8.29173449,180.412476 9.0056174,151.084796 9.29766041,116.387944 L15.9497512,116.01486 C14.7465843,106.810101 14.3070212,97.5216144 14.6355577,88.2444017 C21.2876485,96.2089431 26.9338133,107.287928 32.2068121,118.058714 C37.4798109,128.829499 42.0551514,139.146094 46.3871227,145.861614 C50.7190941,152.577133 54.4020809,155.334714 57.7443509,151.019911 C59.3668121,148.86251 60.9892733,144.920792 62.4332637,138.77301 C64.4107333,130.389514 65.9273031,121.903996 66.976155,113.354606 L66.976155,113.354606 C67.9820809,118.123598 68.9880068,122.389737 69.9939328,126.445003 L70.0912804,127.888677 C70.1700222,127.845923 70.2512958,127.808003 70.3346496,127.77513 C72.321658,136.307352 75.0356706,144.653828 78.4469555,152.723123 C81.2301487,159.274854 84.7752978,165.476146 89.0091777,171.198912 C88.3439686,164.710488 87.8896795,158.222063 87.3867165,151.733638 C86.8837535,145.245213 86.2996675,138.756789 85.9427261,132.268364 C89.1876484,134.50687 92.4325707,135.86944 95.4341239,134.328439 C96.099333,135.399029 96.7483174,136.388514 97.4297511,137.572651 L98.2572063,148.083899 C99.8538817,149.630881 101.696007,150.902546 103.708676,151.847186 C105.250014,155.951114 106.661555,160.347022 108.154219,164.824035 C109.646884,169.301048 111.123323,174.021377 112.551089,178.660601 C115.325498,187.939048 118.229703,197.103948 120.939213,204.873837 C122.285856,208.766892 123.583825,212.303083 124.849345,215.352643 C125.923214,217.925296 127.198084,220.409392 128.662129,222.781889 C131.09582,226.512734 133.302368,227.648208 135.249321,224.825743 C137.082702,220.689373 136.141675,212.789715 134.243395,202.505562 C133.269918,197.363485 131.9395,191.637451 130.592857,185.473447 C129.246215,179.309443 127.867123,172.739913 126.504255,166.008173 C127.189256,164.154368 127.731653,162.25097 128.126716,160.31458 C130.91735,178.157748 134.811256,177.800885 138.494243,175.643483 C142.17723,173.486082 145.714196,169.560585 147.83962,180.104276 C150.743825,208.507355 156.633359,236.440024 161.224924,264.453798 C170.862344,321.389725 183.939381,373.005144 202.046047,422.219846 C211.01885,446.881337 221.420201,470.999609 233.197302,494.452235 L237.691519,503.308935 C239.184184,506.277389 240.676848,509.245844 242.331758,512.133193 L252.066525,529.700603 C258.994434,541.249999 265.906119,552.994048 273.726382,564.413675 C276.468341,568.45272 278.966931,572.524206 281.838688,576.530808 C312.194936,620.554771 343.16772,659.712414 378.699619,697.06952 C375.1622,695.885692 371.699981,694.488106 368.332093,692.884486 C369.208222,693.85775 370.051901,694.863455 370.96048,695.804277 L373.702439,698.610521 L379.186358,704.206787 L384.702726,709.786832 C386.552332,711.636033 388.353263,713.533898 390.332666,715.25333 L401.965713,725.748357 C403.928891,727.46779 405.82717,729.284549 407.855247,730.906655 L413.98815,735.772974 C418.076752,739.017186 422.192395,742.223549 426.335079,745.392063 C430.537254,748.457844 434.804327,751.442519 439.136298,754.281205 C447.709512,759.936734 456.598853,765.098032 465.760886,769.739877 C508.707554,791.696389 556.345422,802.896298 604.578663,802.376654 C652.506166,802.182001 701.504494,792.092501 750.811089,775.157712 C763.790778,770.778025 776.494649,765.781938 789.052498,760.331661 C801.610348,754.881385 813.957277,748.976918 826.044613,742.488493 C838.131949,736.000069 850.008365,729.187222 861.641411,721.936408 L870.305354,716.388805 C873.193335,714.539604 876.016417,712.576855 878.871949,710.695212 C881.72748,708.813569 884.583012,706.769715 887.438544,704.742082 L896.005139,698.659184 C918.719595,682.25969 941.012212,664.497627 963.045234,645.567648 C985.078257,626.637669 1006.85169,606.442447 1029.06318,585.549719 C1020.30189,594.568629 1011.57305,603.27934 1002.76308,612.054934 L989.475127,625.015563 L982.790587,631.503987 L976.041148,637.749096 C958.147003,654.500069 939.375737,670.289173 919.806644,685.049713 L906.210419,694.263276 C901.699977,697.361499 897.108412,700.151522 892.614195,703.136197 C883.544637,709.089327 874.767122,714.734256 866.005832,720.087207 C875.416106,715.042456 884.420766,709.494853 893.457875,703.525502 L900.174864,699.097153 C902.41386,697.621036 904.620408,696.128698 906.794506,694.539034 L919.774195,685.065934 C924.171065,682.178585 928.486811,679.04792 932.851232,675.965918 L945.830921,666.703692 L958.810611,657.084602 L965.300455,652.218284 L971.676728,647.254639 L984.3157,637.294907 C988.50165,633.969589 992.622701,630.482061 996.727528,627.075638 C1004.93718,620.279013 1012.95214,613.255293 1020.75618,606.215352 C1051.93988,577.974483 1079.5055,548.257498 1099.83494,517.74568 C1106.90887,514.274373 1108.32041,515.977584 1114.01525,511.257255 C1154.00891,477.955415 1197.68557,446.956966 1231.15694,413.395588 C1229.89142,411.562608 1249.31228,398.618201 1240.38875,399.234601 C1259.17685,385.268267 1280.36619,371.529028 1301.57176,357.903336 L1317.52055,347.878719 L1325.43816,342.85019 L1333.32332,337.983871 C1338.54765,334.739659 1343.69085,331.463005 1348.75293,328.153908 C1353.83123,324.909696 1358.82841,321.779031 1363.66335,318.56726 C1367.93042,315.923227 1372.08392,313.052099 1376.2212,310.180971 C1380.35847,307.309843 1384.43085,304.308947 1388.47078,301.210724 C1396.58308,294.933173 1404.4358,288.47719 1412.30473,281.74545 C1448.2747,261.031154 1484.65028,241.663206 1521.44769,223.349627 C1530.64705,218.742845 1539.87885,214.298274 1549.12688,209.756377 L1576.96832,196.503769 L1604.98822,183.52692 L1619.13608,177.135821 L1633.46241,170.793386 C1671.93097,153.972145 1712.37893,137.637535 1755.86088,123.233232 C1801.63989,107.86504 1848.57626,96.1864033 1896.22,88.3092859 C1922.50069,84.4941207 1949.00415,82.413323 1975.55835,82.0803981 C2002.09031,81.7009795 2028.62446,82.6646625 2055.05895,84.9677472 C2017.20834,85.4418176 1979.41716,88.1119691 1941.87606,92.9647307 C1937.13847,93.5000258 1932.40088,94.2624157 1927.64707,94.9599213 L1913.41809,97.1011015 L1899.20533,99.599145 C1894.46774,100.426419 1889.73016,101.221251 1885.05747,102.259399 C1866.22069,105.892917 1847.74086,110.36993 1829.55307,115.074038 C1811.55998,117.977608 1794.11852,121.562463 1777.2287,125.520402 C1760.33888,129.478341 1744.17916,134.068902 1728.87936,139.194757 C1698.05259,149.300479 1670.7628,161.450054 1647.7563,175.529936 L1615.53422,193.535315 C1682.36339,163.737224 1753.11893,135.301702 1829.69909,115.10648 C1850.93711,111.651394 1872.80789,108.974919 1894.98693,107.077055 C1917.16597,105.17919 1939.52349,104.25459 1961.50784,103.654411 C1960.61548,103.816621 1959.88538,104.027495 1958.87945,104.205927 C1924.37918,108.0535 1890.13489,113.924832 1856.32368,121.789558 C1792.31759,130.467826 1734.13613,146.753772 1689.486,169.674133 C1683.93718,172.561482 1678.42081,175.481273 1673.26139,178.563275 L1640.68237,196.195569 C1682.24982,178.141527 1725.26127,160.914759 1770.18722,146.121151 C1798.07732,136.972472 1826.76244,128.651067 1856.17766,121.789558 C1874.96576,119.242851 1894.32172,117.490976 1913.74258,116.225734 C1911.74695,116.971902 1909.63775,117.718071 1907.83682,118.512903 C1902.1651,120.114647 1896.74704,122.506371 1891.74201,125.617728 C1885.7391,129.202808 1880.12735,133.405258 1874.99821,138.156609 C1865.68528,147.240404 1861.90495,156.097104 1874.21943,157.621884 C1878.01599,157.005483 1881.89367,156.518851 1885.82002,155.999777 L1897.71266,154.377671 C1905.82497,153.517955 1913.93728,152.447365 1922.24428,151.684975 C1930.55128,150.922585 1938.92318,150.062869 1947.34375,149.608679 L1959.99895,148.781405 C1964.21735,148.521868 1968.45197,148.40832 1972.67037,148.213668 C2004.8982,146.875452 2037.17554,147.330344 2069.35283,149.576237 C2098.8005,151.636312 2124.22447,155.107619 2142.21756,158.043631 L2154.28867,160.087485 C2157.80941,160.736328 2160.77852,161.38517 2163.24466,161.904244 C2168.11204,162.958613 2170.74043,163.639898 2170.67553,163.915656 C2171.38941,165.229562 2168.7448,165.797299 2163.61783,165.81352 C2161.05434,165.81352 2157.85809,165.699972 2154.15888,165.440436 C2150.45967,165.180899 2146.19259,165.018688 2141.55235,164.661825 C2132.27188,163.866992 2121.25536,163.201929 2109.4763,162.309771 L2091.23983,161.255402 L2072.37061,160.493012 C2047.07644,159.649516 2021.81472,160.087485 2003.43223,161.012086 C1994.23288,161.628486 1986.75333,162.131339 1981.82105,162.634192 C1976.88877,163.137045 1974.48753,163.688561 1975.47723,163.948098 L1984.22229,164.613161 L1992.95114,165.424214 C1998.75955,165.959509 2004.56796,166.381257 2010.34392,167.046321 C2004.81133,167.6465 1999.32741,168.506216 1994.02196,169.365932 C1988.71651,170.225649 1983.55709,170.988039 1978.6248,172.220839 C1972.76772,172.869682 1966.44012,173.112998 1959.98272,173.486082 L1940.62676,174.653999 C1934.29916,175.221736 1928.23116,175.838136 1922.77969,176.66541 C1918.00203,177.361961 1913.30961,178.552479 1908.77785,180.217823 C1882.38041,189.512491 1854.4903,196.049579 1826.03233,203.787026 C1797.57436,211.524472 1768.75945,220.105414 1741.53455,232.984937 C1707.70624,250.033274 1669.09166,272.872529 1631.41811,296.685048 C1633.04057,300.821419 1611.73766,306.417685 1620.14201,308.039791 C1610.60194,311.770635 1600.67247,315.582585 1590.93771,319.654071 C1581.20294,323.725558 1571.84134,327.910592 1563.35587,332.387605 C1555.56106,336.324171 1548.09534,340.880739 1541.0308,346.013297 C1534.833,350.684963 1530.07919,355.389071 1527.36968,360.093179 L1524.80619,361.585517 C1521.39093,363.305996 1518.17074,365.388873 1515.20122,367.798183 C1487.20222,379.213468 1460.62622,393.845849 1436.00889,411.400398 C1433.13713,413.41181 1430.26538,415.390779 1427.44229,417.467075 L1419.03795,423.728405 C1413.4729,427.962102 1407.84296,432.082252 1402.3266,436.543044 L1385.453,449.828094 C1379.79061,454.418654 1374.01465,459.074099 1368.02777,463.761986 C1363.66335,466.56823 1359.38005,469.536684 1355.04808,472.424033 C1350.71611,475.311382 1346.31924,478.214952 1341.88992,481.08608 L1328.66686,489.926559 C1324.22132,492.878792 1319.6622,495.717478 1315.20043,498.767038 C1327.01195,491.01337 1346.02719,481.621375 1357.07615,472.488917 C1360.77537,469.552905 1364.40968,466.56823 1368.06022,463.745765 C1373.69556,460.058177 1379.27683,456.354368 1384.80402,452.634337 L1401.36934,441.717563 L1409.6439,436.251065 L1417.9509,430.898114 C1423.49971,427.345702 1428.93496,423.679742 1434.48378,420.192213 C1456.54925,406.063668 1478.71207,392.470419 1501.23183,379.396243 C1504.47675,376.46023 1509.89577,371.756122 1515.1201,367.781962 C1518.60839,366.354509 1522.06423,364.927055 1525.61742,363.596928 C1526.07065,362.379963 1526.61294,361.198034 1527.23988,360.060737 C1548.76994,347.083887 1572.55522,334.982975 1595.64284,323.401137 C1618.73047,311.819299 1641.21778,301.048513 1660.20057,290.667034 C1697.72731,273.025956 1736.75696,258.77576 1776.82308,248.086746 C1817.30257,237.189138 1858.6,229.594374 1900.3086,225.377259 C1860.80061,233.898826 1822.06079,245.65549 1784.4811,260.528301 C1831.01329,244.096365 1876.16638,231.4926 1921.2708,223.479395 C1928.31228,222.895437 1935.24019,222.587237 1942.18433,222.084384 C1949.4854,221.711299 1956.78648,221.467983 1964.07133,221.208446 C1971.35618,220.948909 1978.67348,220.965131 1985.97455,221.062457 C1979.16022,220.478499 1972.3621,220.235183 1965.58022,219.878319 C1958.79833,219.521456 1952.03266,219.635003 1945.28323,219.537677 C1972.44323,215.595959 1999.6519,213.179021 2026.66588,211.978662 C2101.1044,211.410925 2177.23028,224.047132 2249.78674,248.119188 C2322.40612,272.238945 2390.92906,307.27235 2453,352.01509 C2448.69653,352.601003 2444.36269,352.936803 2440.02031,353.020796 L2434.32547,349.322394 L2428.56573,345.737539 L2417.04626,338.584051 L2405.39699,331.70632 L2399.58858,328.283676 L2393.71527,325.039464 L2382.0011,318.551039 L2370.20581,312.435699 L2364.3325,309.434802 L2358.41051,306.579896 L2346.63145,301.016071 C2315.1557,286.7902 2283.76108,276.311394 2254.32963,271.445075 C2292.74951,286.319789 2320.39625,294.706078 2356.04172,312.954773 C2355.40896,314.057805 2354.88977,315.858343 2351.56373,315.031069 C2377.74372,325.590316 2403.00506,338.296895 2427.0893,353.020796 C2421.60538,352.907248 2415.92676,352.647711 2410.16703,352.339511 L2392.64444,351.593342 C2390.81106,351.122932 2388.92901,350.538973 2386.99828,349.841468 C2385.06755,349.143962 2383.02325,348.446456 2380.96272,347.619182 C2376.84167,345.997076 2372.52593,344.001885 2367.98303,341.909368 C2363.44014,339.816851 2358.78368,337.675671 2353.99742,335.420944 C2349.21116,333.166216 2344.26265,331.122362 2339.2168,329.09473 C2318.1248,319.216103 2297.2275,310.051203 2276.18418,301.664914 C2255.14086,293.278625 2234.00019,285.735831 2212.6486,279.15008 C2191.29701,272.564329 2169.70206,266.903178 2147.75016,262.377502 C2125.76199,257.785877 2103.51482,254.535664 2081.1319,252.644865 C2061.27298,249.595305 2041.3167,247.259472 2021.32798,245.832019 C2001.33926,244.404565 1981.30186,244.01526 1961.29692,244.388344 C1941.29197,244.761428 1921.48172,246.302429 1901.76882,248.540936 C1882.05591,250.779442 1862.45658,254.088539 1843.0844,258.111362 C1862.03474,252.704342 1880.82284,248.04349 1899.4487,244.128807 L1906.42528,242.65269 L1913.40186,241.371226 C1918.0421,240.543952 1922.66612,239.58691 1927.30636,238.840741 L1941.1784,236.650897 C1945.78619,235.872286 1950.4102,235.401876 1955.01799,234.753033 C1964.23357,233.422906 1973.43293,232.660516 1982.59983,231.638589 C1991.76674,230.973526 2000.91742,230.016483 2010.05188,229.65962 C2028.71018,228.58903 2046.88174,228.313272 2064.95596,228.361935 Z M74.6828455,273.780908 C76.7920451,281.339923 79.3717583,289.093591 81.9027977,296.814816 C82.1786161,295.50091 82.4544345,294.235667 82.7951514,292.986646 C81.4452214,286.10975 78.7069799,279.580252 74.747744,273.797129 L74.6828455,273.780908 Z M114.919883,448.562851 C108.430038,422.722699 99.3767045,393.524788 90.582965,362.347907 C81.7892255,331.171025 73.2550797,298.193606 66.4407428,265.475725 C65.8873887,265.203533 65.2707675,265.08584 64.6560355,265.135082 C66.181149,279.068974 68.8257607,293.716593 71.8273139,308.818402 C73.4714079,316.388231 75.2128495,324.033758 77.0516388,331.754984 C78.9336938,339.476209 81.1240164,347.262319 83.2494405,355.113313 C92.1405277,386.468626 103.221938,418.278128 114.919883,448.562851 Z M167.276704,666.492818 L167.163132,664.870712 C166.909925,665.10105 166.644542,665.317642 166.368126,665.519554 C166.676394,665.876418 166.968437,666.184618 167.276704,666.492818 L167.276704,666.492818 Z M1031.64289,720.882039 C1011.65417,743.591526 986.21398,766.041475 957.009679,787.631709 L945.912044,795.74224 L940.298329,799.781284 C938.400049,801.127632 936.436871,802.425317 934.489918,803.755444 C930.596011,806.415698 926.669655,809.059732 922.662176,811.622659 C918.654697,814.185587 914.663442,816.813399 910.558615,819.327664 C894.334004,829.482049 877.330611,839.198465 860.035175,848.525575 C857.374338,849.758376 854.762176,851.120945 852.166238,852.580841 C849.5703,854.040736 846.974362,855.500632 844.378424,857.090296 L828.380957,867.098691 C817.234649,873.895316 804.936393,881.000141 789.571686,885.931344 C770.783586,893.19838 755.500001,898.908194 740.897851,904.131376 C726.183886,909.417589 711.145077,913.752152 695.874553,917.108225 C700.157851,917.319099 704.37625,917.286657 708.659548,917.367762 L715.149392,917.367762 L721.525665,917.270436 C714.289488,918.454573 707.361579,919.444058 700.790611,920.676859 L691.055844,922.298965 C687.810921,922.850481 684.776919,923.531766 681.678018,924.034619 C675.480217,925.072767 669.542009,926.35423 663.555127,927.278831 L654.680264,928.819832 C651.727385,929.338906 648.758281,929.71199 645.789177,930.149959 C642.820073,930.587928 639.850969,931.009675 636.849416,931.366539 L627.747409,932.242476 C621.646955,932.858876 615.351806,933.021087 608.861961,933.118413 C605.617039,933.199519 602.372116,933.118413 598.932499,932.891318 C595.492881,932.664224 592.118162,932.534455 588.613646,932.210034 C581.211055,931.466527 573.855416,930.31306 566.580623,928.754948 C566.304804,930.92857 556.699834,934.237667 547.662726,932.45335 C524.948269,929.436232 502.671877,922.720713 482.131519,915.04815 C471.780217,911.301085 461.948102,907.09983 452.6514,903.174333 C443.354697,899.248836 434.479834,895.48555 426.043036,892.241337 C406.560707,882.885518 387.720447,872.248194 369.646286,860.399393 C352.367075,849.433955 337.197063,838.290085 322.594912,829.319838 C319.34999,826.529815 313.557804,823.626245 306.694793,820.171159 C303.255175,818.435505 299.572188,816.570083 295.840528,814.526229 C292.140317,812.367862 288.555217,810.018023 285.099835,807.486289 L273.434339,797.088588 C271.471161,795.369155 269.60533,793.568617 267.755725,791.735637 L262.190683,786.285361 L251.044375,775.319923 C249.178544,773.503164 247.393837,771.621521 245.657804,769.723656 L240.36858,764.046285 C240.530826,765.149317 240.644399,766.171244 240.709297,767.128286 L244.879022,771.897279 L246.988222,774.281775 L249.194769,776.585166 C252.147648,779.656353 255.143793,782.705913 258.183204,785.733844 C261.222614,788.761776 264.305291,791.746451 267.431232,794.687871 C270.546358,797.640104 273.921077,800.349021 277.295796,803.090381 L292.579381,815.467051 C297.868604,819.538538 303.352523,823.577582 308.803992,827.66529 L317.046095,833.813072 C319.788054,835.889368 322.724709,837.771011 325.564016,839.766202 L342.762105,851.591356 C365.928414,867.091532 390.011919,881.17554 414.880504,893.766117 C422.408723,897.642951 430.131639,901.308911 437.935677,904.780218 C445.739715,908.251525 453.722224,911.495738 461.850754,914.512855 C477.980667,920.45717 494.484292,925.334022 511.254697,929.111811 C543.463411,936.327325 576.430986,939.595581 609.429822,938.844448 L621.354912,938.471364 L633.166429,937.692753 C637.10901,937.465658 640.986692,937.04391 644.864374,936.654605 C648.742057,936.265299 652.635963,935.924657 656.448747,935.35692 C671.829679,933.459056 686.82122,930.636591 701.553168,927.441042 C716.285115,924.245492 730.595223,920.206448 744.661961,915.826761 C758.728699,911.447075 772.438496,906.548314 785.840025,901.130479 C808.814075,891.722263 830.003418,878.84274 851.062964,867.22846 C866.687265,857.966233 882.993,848.379586 899.039141,838.354969 C915.085282,828.330353 930.936728,817.883989 945.538878,807.178088 C974.483586,786.090708 998.593358,764.176053 1011.92999,744.532347 C1016.63513,738.043922 1028.60889,729.041233 1031.64289,720.882039 Z M1033.76832,595.022819 C1007.58189,623.430978 979.59044,650.121338 949.968197,674.92777 L938.821889,683.881796 C935.090228,686.817809 931.407241,689.867368 927.610682,692.608728 L916.253454,700.913912 L910.607289,705.001619 C908.725234,706.331746 906.81073,707.596989 904.912451,708.878453 L893.555222,716.437468 C891.673167,717.670269 889.791112,718.951732 887.909058,720.103428 L882.295342,723.542293 C878.579906,725.861905 874.799571,728.003085 871.067911,730.128044 C867.33625,732.253003 863.588365,734.264415 859.872928,736.227163 C848.077636,742.845357 830.96067,752.837531 811.848078,763.283895 C792.735485,773.730259 771.659715,784.517265 752.482224,793.876818 C733.304733,803.23637 716.139093,811.557775 705.528197,818.727484 C703.164653,820.272059 700.948711,822.031392 698.908556,823.983109 C697.388149,825.349874 696.15303,827.00369 695.274243,828.849427 C693.960049,832.09364 694.9822,835.013431 699.070802,837.722348 C706.712594,830.147112 719.302893,823.220719 735.024542,815.483272 C750.74619,807.745826 769.664087,799.424421 790.188221,789.772889 C795.347648,787.437056 800.523299,784.793023 805.861196,782.3112 L813.85993,778.353261 L817.916083,776.374292 L821.972236,774.297996 C832.842725,768.86394 843.859237,762.943252 854.924422,756.844133 C865.989607,750.745014 876.989894,744.191705 887.860384,737.524848 L895.97269,732.447656 L904.084995,727.175811 C909.422893,723.623398 914.777014,720.200754 920.001339,716.632121 C961.76349,687.985725 998.820503,657.960539 1021.25914,635.0564 C1043.69778,612.152261 1051.51804,596.70981 1033.78454,595.022819 L1033.76832,595.022819 Z M1545.08695,226.058544 C1516.9048,241.144132 1489.77725,255.93774 1456.67905,271.007107 C1485.86712,255.17535 1515.37969,240.3493 1545.08695,226.058544 Z M1300.66318,449.909199 C1305.17362,445.89719 1309.73815,441.906808 1314.35675,437.938055 C1318.97536,433.969302 1323.71835,430.12491 1328.58574,426.40488 L1335.82191,420.678845 L1343.20411,415.131242 C1348.14721,411.454468 1353.13357,407.799322 1358.1632,404.165804 C1378.44397,389.956154 1399.40617,376.200693 1420.92,363.483381 L1429.03231,358.617062 L1437.14461,353.929175 L1453.36922,344.618286 L1469.72363,335.583154 C1475.15888,332.566037 1480.61035,329.56514 1486.07804,326.677791 L1502.41623,317.918418 L1518.73818,309.353697 L1551.04139,292.483793 C1559.28349,288.201432 1567.76896,284.227272 1576.38423,280.350438 C1584.9995,276.473605 1593.80946,272.969855 1602.65188,269.433664 C1620.38538,262.523491 1638.34602,256.035066 1656.1931,249.643968 C1691.88724,236.764445 1726.9324,224.16068 1757.66182,207.469207 L1755.86088,200.980782 L1749.17634,205.198258 C1723.21697,211.32982 1701.7518,214.54159 1680.15685,219.926983 L1683.62891,218.126445 L1677.41489,220.624488 C1662.01096,224.491834 1647.04399,229.927248 1632.74853,236.84555 L1611.05623,248.200294 C1589.68841,257.251646 1568.2557,266.805852 1546.98523,276.619594 C1525.71477,286.433337 1504.7039,296.814816 1484.24466,307.780254 C1443.34241,329.694909 1404.61427,353.637196 1370.9482,380.077527 C1328.43971,411.075977 1296.21764,443.680311 1257.99245,478.588036 C1260.994,476.495519 1264.48229,474.240792 1268.11661,471.888738 C1271.75092,469.536684 1275.7584,467.233293 1279.63608,464.783913 C1283.51376,462.334532 1287.37522,459.917594 1290.99331,457.370887 C1294.34745,455.079748 1297.58049,452.616245 1300.6794,449.990304 L1300.66318,449.909199 Z" id="Shape"></path>
                <path d="M1930.9995,219.727528 L1942.80702,217.90656 C1946.74827,217.337507 1950.70573,216.914782 1954.67942,216.410764 C1962.61057,215.353953 1970.59038,214.67109 1978.60262,213.955709 C1982.60874,213.549243 1986.63109,213.321622 1990.65343,213.094001 L2002.75289,212.378621 L2014.90102,212.020931 C2018.9558,211.923379 2023.01058,211.760792 2027.09779,211.809568 C2052.2915,210.660624 2077.53926,210.573911 2102.84109,211.54943 C2163.06269,215.565315 2227.46882,231.482527 2289.36099,256.260699 C2304.8989,262.325173 2320.17732,269.137544 2335.42329,276.112502 C2350.66926,283.08746 2365.60707,290.745281 2380.31782,298.598206 C2409.8204,314.320314 2438.43093,331.26182 2465.80881,349 C2472.68571,345.862082 2476.95134,340.708092 2477,332.286115 C2473.46423,329.457111 2469.83115,326.758176 2466.19807,324.0755 C2462.56498,321.392824 2458.9319,318.693889 2455.25016,316.059989 L2444.07518,308.337133 L2438.46337,304.516352 L2432.77046,300.82564 L2421.33598,293.509251 L2409.70687,286.501775 C2401.97034,281.786769 2393.99054,277.494487 2386.09183,273.055877 C2354.16589,255.862207 2321.11079,240.864254 2287.15519,228.165763 C2253.13111,215.489386 2218.40815,204.784375 2183.15818,196.103719 L2169.9396,192.85199 L2156.63992,189.876659 L2149.99008,188.380863 L2143.3078,187.015137 L2129.94324,184.267427 C2112.10221,180.901887 2094.14764,177.601383 2076.07954,175 C2074.92798,175.097552 2073.74399,175.146328 2072.59243,175.276397 C2040.86783,178.056625 2000.27137,177.666417 1957.84215,180.983181 C1936.50151,182.533636 1915.26088,185.247425 1894.21453,189.112502 C1874.25289,192.718391 1854.60904,197.910437 1835.46888,204.639507 C1817.62784,211.646982 1799.99766,218.638198 1782.61076,225.775743 C1765.22386,232.913287 1748.09647,240.180901 1731.13127,247.659877 C1714.16607,255.138853 1697.42794,262.926743 1680.85199,271.056064 C1664.27605,279.185386 1648.00827,287.656139 1632,296.760979 C1681.19259,278.161091 1729.31473,260.048963 1778.73439,245.920202 C1803.4328,238.762842 1828.47423,232.85351 1853.76405,228.214539 C1879.27586,223.553125 1905.08616,220.716963 1930.9995,219.727528 L1930.9995,219.727528 Z" id="Shape"></path>
                <path d="M1229,641 C1249.35952,622.508745 1269.6866,604.536999 1290.27324,587.230873 L1300.80179,578.236882 C1304.28967,575.265943 1307.71267,572.213831 1311.21678,569.389003 L1321.59932,560.817114 C1325.03854,557.959817 1328.42909,555.10252 1331.9332,552.375101 C1345.73874,541.254373 1359.51183,530.507041 1373.34982,520.068168 C1401.04201,499.174186 1428.96132,479.400395 1458,460 C1435.66131,472.224684 1413.45239,484.644183 1391.76261,497.842946 C1370.07283,511.041708 1348.4966,524.45152 1327.52061,538.689299 C1324.95742,540.572518 1322.4429,542.466559 1319.97705,544.371423 C1317.51119,546.276288 1315.12645,548.246091 1312.82283,550.280832 C1308.15068,554.258319 1303.59209,558.187102 1299.21196,562.261997 C1290.5328,570.574132 1282.35655,578.756391 1274.53719,587.523096 C1258.84982,604.634407 1244.39537,622.784734 1229,641 Z" id="Shape"></path>
                <path d="M1506.13413,428.992627 C1489.72839,439.285059 1473.90684,449.59375 1458.31247,460 C1524.73054,423.96836 1593.69627,391.806544 1664.39833,362.181251 C1721.82651,335.824171 1778.97882,312.084913 1837.12099,294.524367 C1851.7255,290.11797 1866.24888,286.215626 1880.93452,282.573439 C1895.62017,278.931252 1910.30581,275.955714 1925.08882,273.386672 C1928.78863,272.654982 1932.50467,272.13467 1936.22071,271.549318 L1947.40127,269.825783 L1958.64674,268.394924 C1962.39523,267.907131 1966.15995,267.419338 1970.0058,267.077883 L1981.36487,265.923439 C1985.14581,265.516945 1988.94299,265.338088 1992.72393,265.012892 C1996.50488,264.687697 2000.31828,264.362502 2004.08299,264.199904 L2015.52319,263.630812 L2020.73213,263.435695 L2025.92485,263.435695 L2036.31028,263.435695 C2043.22308,263.435695 2050.10343,263.825929 2057,264.069826 C2000.36696,257.191945 1943.10105,257.045607 1887.2956,265.273049 C1873.30772,267.191701 1859.36853,269.825783 1845.51047,272.589943 C1838.59767,274.134621 1831.66864,275.500441 1824.7883,277.223976 L1814.46778,279.71172 L1804.13103,282.313283 C1776.75569,289.483839 1749.80225,298.182814 1723.27073,307.645997 C1696.7392,317.109181 1670.62959,327.59673 1645.03924,338.539552 C1619.44889,349.482374 1594.50764,360.945509 1570.39397,373.075294 C1564.35744,376.067091 1558.36959,379.107667 1552.54401,382.245801 C1546.71844,385.383936 1540.74681,388.457032 1534.95369,391.627686 C1523.3999,398.131592 1511.94348,404.440381 1500.8765,411.139405 C1489.80953,417.838428 1478.87238,424.748828 1468.22731,431.57793 C1462.93723,435.07378 1457.74452,438.634668 1452.56803,442.179297 L1444.86009,447.49624 L1437.31443,452.959522 C1434.40976,455.15459 1431.0994,457.479736 1428,459.739844 C1468.68708,437.084571 1510.19634,415.833057 1552.52778,395.985303 C1573.62319,385.953028 1595.02691,376.473585 1616.46308,366.961622 C1637.89926,357.449659 1659.61129,348.409229 1681.37201,339.580177 C1651.28672,353.124561 1621.33125,367.221778 1592.12223,382.018165 C1562.91321,396.814551 1534.06119,412.472705 1506.13413,428.992627 Z" id="Shape"></path>
                <path d="M1901,225 C1904.50776,224.566667 1908.01552,224.266667 1911.50704,223.983333 L1921.96536,223.05 C1925.99278,222.216667 1930.08517,221.683333 1934.01516,220.966667 C1937.94515,220.25 1942.00505,219.583333 1946,219 C1941.12811,219 1936.11007,219.233333 1931.22194,219.35 C1928.67232,219.766667 1926.1227,220.116667 1923.58932,220.583333 L1916.00541,222 C1910.98737,222.983333 1905.95309,223.866667 1901,225 Z" id="Shape"></path>
                <path d="M1680,220 L1677.26405,220.695911 C1655.22537,229.607893 1633.15432,238.778819 1611.05088,248.208688 L1519,296 C1548.02695,282.227428 1577.13484,269.199319 1604.47813,256.624361 C1631.82142,244.049404 1657.44867,231.943782 1680,220 Z" id="Shape"></path>
                <path d="M1466,246 C1458.99585,249.197674 1444.97138,255.225291 1437.99959,258.550872 L1427,268 L1446.92866,259.286337 L1466,246 Z" id="Shape"></path>
                <path d="M1099.81978,518.011072 C1123.60496,495.261431 1147.82851,472.739286 1172.88007,450.867131 C1197.93163,428.994976 1223.9898,407.805311 1250.30774,387.980623 C1276.62568,368.155936 1303.44693,349.582479 1330.49547,331.870258 C1337.28196,327.515327 1344.00351,322.981649 1350.8387,318.772965 L1371.27935,306.000666 L1391.81741,293.634611 C1398.66884,289.474677 1405.58522,285.590988 1412.48536,281.561052 L1427,269 C1388.06846,286.411589 1350.41611,306.557371 1314.32479,329.286549 C1279.21154,351.359727 1246.29222,376.749515 1216.01811,405.107853 C1213.14441,407.82156 1209.97846,411.071509 1206.73134,414.483955 C1203.48421,417.896401 1200.00979,421.568844 1196.68149,425.273785 C1190.64811,432.192498 1184.03806,438.585409 1176.92274,444.383484 C1149.55617,466.551032 1123.37515,490.145843 1098.48846,515.069869 C1074.32985,538.956992 1051.63245,562.827865 1029,586 C1051.40516,564.777835 1074.08632,542.694433 1097.8228,519.944792 L1099.81978,518.011072 Z" id="Shape"></path>
            </g>
        </g>
    </g>
</svg>