<?xml version="1.0" encoding="UTF-8"?>
<svg width="2241px" height="5215px" viewBox="0 0 2241 5215" version="1.1" xmlns="http://www.w3.org/2000/svg" xmlns:xlink="http://www.w3.org/1999/xlink">
    <!-- Generator: Sketch 47 (45396) - http://www.bohemiancoding.com/sketch -->
    <title>Untitled-4</title>
    <desc>Created with Sketch.</desc>
    <defs></defs>
    <g id="Page-1" stroke="none" stroke-width="1" fill="none" fill-rule="evenodd" opacity="0.2">
        <g id="Artboard" fill-rule="nonzero" fill="#3BBC5C">
            <g id="Untitled-4" transform="translate(-590.000000, -272.000000)">
                <g id="Group">
                    <path d="M1249.215,1898.936 C1273.688,1892.602 1298.343,1886.499 1322.329,1881.537 C1298.663,1889.03 1273.887,1893.812 1249.215,1898.936 Z" id="Shape"></path>
                    <path d="M1867.763,1525.403 C1865.889,1523.814 1865.811,1521.453 1866.429,1518.799 C1867.737,1516.716 1868.63,1514.555 1868.95,1512.334 C1894.334,1492.876 1917.763,1471.114 1939.27,1446.845 C1935.682,1454.094 1934.833,1462.824 1929.865,1469.446 C1923.569,1475.948 1917.868,1480.57 1912.63,1484.431 C1907.387,1488.29 1902.582,1491.373 1897.924,1494.72 C1893.256,1498.06 1888.725,1501.651 1883.889,1506.454 C1879.043,1511.256 1873.899,1517.265 1867.763,1525.403 Z" id="Shape"></path>
                    <path d="M1221.771,1905.003 C1221.009,1905.609 1220.218,1906.206 1219.421,1906.771 C1211.006,1909.036 1202.792,1911.169 1194.625,1913.424 C1193.582,1913.38 1192.627,1913.382 1191.466,1913.289 C1201.364,1910.02 1211.49,1907.444 1221.771,1905.003 Z" id="Shape"></path>
                    <path d="M1834.961,1550.952 C1831.682,1547.761 1828.356,1544.545 1823.954,1543.34 C1839.478,1533.732 1854.372,1523.523 1868.647,1512.565 C1867.744,1514.75 1866.891,1516.864 1866.428,1518.798 C1863.077,1524.043 1857.015,1528.92 1850.913,1534.02 C1844.801,1539.128 1838.629,1544.446 1834.961,1550.952 Z" id="Shape"></path>
                    <path d="M1392.315,1684.011 C1378.377,1687.218 1367.691,1698.87 1361.473,1702.502 C1323.457,1703.968 1285.014,1705.064 1239.163,1709.88 C1232.621,1713.513 1217.836,1716.547 1204.618,1723.882 C1200.095,1722.845 1195.415,1721.978 1190.603,1721.253 C1188.195,1720.891 1185.755,1720.564 1183.282,1720.271 C1180.66,1720.004 1178.879,1719.613 1176.287,1719.384 L1213.71,1712.778 L1251.415,1706.249 L1326.136,1693.371 C1375.639,1684.748 1424.552,1675.903 1472.643,1665.903 C1447.233,1672.837 1420.631,1679.057 1392.315,1684.011 Z" id="Shape"></path>
                    <path d="M2109.828,1.375 C2072.284,11.197 2034.452,25.319 1998.658,45.095 C1962.892,64.803 1929.234,90.166 1900.728,120.629 C1872.216,151.014 1848.924,186.537 1833.827,224.584 C1826.267,243.581 1820.758,263.167 1817.538,282.772 C1814.315,302.374 1813.393,321.992 1814.854,340.929 C1818.676,319.207 1824.537,297.037 1832.538,275.384 C1840.527,253.727 1850.658,232.6 1862.586,212.849 C1874.503,193.09 1888.207,174.713 1903.024,158.346 C1917.835,141.969 1933.748,127.604 1949.873,115.596 C1965.995,103.575 1982.311,93.903 1997.853,86.6 C2013.397,79.285 2028.149,74.326 2041.222,71.445 C2054.305,68.565 2065.701,67.749 2074.764,68.616 C2083.838,69.486 2090.578,72.028 2094.664,75.987 C2098.753,79.961 2098.795,83.946 2095.857,87.909 C2092.913,91.893 2086.975,95.892 2078.903,100.401 C2070.831,104.915 2060.61,109.957 2049.078,116.107 C2037.549,122.249 2024.713,129.526 2011.491,138.281 C1998.275,147.027 1984.686,157.265 1971.699,168.934 C1958.711,180.59 1946.33,193.665 1935.409,207.635 C1924.473,221.588 1914.997,236.415 1907.494,251.189 C1899.976,265.957 1894.427,280.651 1890.913,294.151 C1894.972,287.629 1897.133,284.505 1899.285,281.381 C1901.46,278.281 1903.623,275.176 1908.198,269.254 C1903.613,275.154 1899.208,281.334 1896.161,287.83 C1893.112,294.314 1891.427,301.11 1892.273,307.933 C1895.984,301.362 1900.3,293.337 1905.295,285.066 C1910.27,276.788 1915.921,268.272 1921.921,260.574 C1927.913,252.87 1934.24,245.991 1940.286,240.773 C1946.332,235.548 1952.067,231.977 1956.823,230.675 C1955.277,238.989 1954.155,247.249 1953.447,255.405 C1967.639,244.562 1982.992,231.755 2000.026,219.684 C2017.005,207.595 2035.685,196.305 2055.007,188.024 C2074.294,179.696 2094.141,174.441 2112.425,173.07 C2130.716,171.652 2147.358,174.06 2160.414,179.693 C2144.97,175.932 2128.235,174.589 2110.877,176.164 C2093.53,177.724 2075.575,182.213 2058.003,189.754 C2040.433,197.277 2023.269,207.856 2007.589,221.174 C1991.905,234.478 1977.728,250.526 1966.046,268.639 C1954.365,286.746 1945.193,306.915 1939.357,328.213 C1933.503,349.506 1930.995,371.908 1932.278,394.375 C1933.541,416.847 1938.609,439.371 1947.438,461.023 L1948.275,463.051 L1949.616,466.139 L1952.021,472.046 C1953.358,475.336 1954.723,478.623 1956.112,481.908 C1958.888,488.478 1961.763,495.039 1964.734,501.59 C1970.672,514.693 1976.986,527.757 1983.632,540.789 C1996.921,566.858 2011.549,592.787 2027.094,618.75 C2042.638,644.719 2059.104,670.721 2076.001,697.088 C2092.894,723.46 2110.222,750.198 2127.375,777.769 C2144.519,805.34 2161.497,833.754 2177.464,863.509 C2193.421,893.253 2208.364,924.372 2221.151,957.06 C2233.941,989.72 2244.519,1023.977 2251.805,1059.212 C2259.118,1094.426 2263.108,1130.553 2263.561,1166.355 C2264.052,1202.169 2261.077,1237.597 2255.348,1271.764 C2252.705,1290.972 2249.333,1309.888 2245.369,1328.473 C2243.385,1337.765 2241.259,1346.979 2238.996,1356.108 C2237.863,1360.672 2236.706,1365.22 2235.508,1369.742 C2234.317,1374.266 2233.122,1378.663 2231.892,1383.123 C2222.032,1418.664 2210.24,1453.861 2196.181,1488.37 C2182.133,1522.874 2165.805,1556.681 2147.144,1589.292 C2128.5,1621.908 2107.5,1653.292 2084.511,1683 C2061.519,1712.704 2036.549,1740.72 2010.183,1766.798 C1983.823,1792.896 1956.095,1817.071 1927.626,1839.423 C1899.153,1861.786 1869.94,1882.32 1840.473,1901.319 C1810.999,1920.317 1781.265,1937.777 1751.586,1954.012 C1740.166,1959.608 1724.384,1966.074 1705.913,1972.618 C1687.442,1979.17 1666.288,1985.793 1644.135,1991.949 C1621.977,1998.121 1598.824,2003.833 1576.272,2008.87 C1553.717,2013.912 1531.763,2018.289 1511.905,2021.945 C1442.96,2040.974 1375.322,2057.18 1310.144,2074.062 C1293.852,2078.28 1277.714,2082.536 1261.762,2086.881 L1249.534,2090.214 L1243.376,2091.889 L1238.17,2093.41 C1231.29,2095.446 1224.445,2097.57 1217.639,2099.784 C1190.414,2108.633 1163.798,2118.893 1138.02,2130.61 C1081.986,2151.909 1027.717,2175.038 974.895,2201.068 C922.105,2227.1 870.759,2256.052 821.411,2289.049 C772.098,2322.039 724.78,2359.1 680.905,2401.1 C637.065,2443.077 596.663,2490.026 562.05,2542.135 C555.152,2552.498 545.771,2562.552 536.433,2570.29 C527.098,2578.014 517.777,2583.421 510.921,2584.034 C504.083,2584.643 499.64,2580.399 500.576,2568.728 C501.055,2562.898 502.901,2555.218 506.613,2545.445 C510.331,2535.679 515.916,2523.816 524.007,2509.755 C549.174,2462.087 580.366,2416.75 616.296,2374.915 C652.223,2333.061 692.876,2294.706 736.901,2260.531 C735.571,2269.389 723.459,2280.468 710.326,2292.571 C697.174,2304.633 683.016,2317.78 677.134,2329.438 C709.613,2304.974 739.904,2283.843 770.25,2263.315 C800.63,2242.832 831.079,2222.949 864.674,2202.059 C819.84,2229.904 777.11,2260.761 736.84,2294.43 C787.149,2252.334 844.785,2213.354 906.856,2179.031 C968.934,2144.648 1035.388,2114.928 1103.491,2089.668 C1116.087,2085.429 1129.103,2083.958 1142.411,2083.505 C1155.728,2083.053 1169.335,2083.613 1183.328,2083.443 C1197.33,2083.273 1211.709,2082.367 1226.82,2079.014 C1230.599,2078.176 1234.425,2077.181 1238.31,2076.014 L1241.398,2075.071 L1244.773,2074.005 L1248.527,2072.779 C1249.745,2072.363 1250.81,2071.965 1251.965,2071.535 C1261.045,2068.129 1270.43,2063.809 1280.169,2058.345 L1240.127,2063.324 L1231.062,2064.398 L1222.242,2065.494 C1216.361,2066.247 1210.478,2067.05 1204.595,2067.899 C1181.06,2071.293 1157.512,2075.449 1134.017,2080.402 C1087.034,2090.31 1040.268,2103.443 994.412,2120.01 C948.56,2136.57 903.621,2156.568 860.415,2180.025 C817.21,2203.471 775.74,2230.376 736.901,2260.531 C736.992,2260.076 737.162,2259.608 737.132,2259.187 C702.896,2286.681 671.426,2314.151 641.697,2342.819 C611.995,2371.499 584.02,2401.387 557.49,2434.05 C572.742,2412.765 588.885,2391.165 606.375,2375.799 C560.048,2416.646 518.877,2462.808 483.129,2512.497 C447.362,2562.202 417.014,2615.424 391.855,2670.808 C404,2629.327 420.312,2588.114 440.359,2547.977 C460.401,2507.832 484.182,2468.769 511.139,2431.405 C538.094,2394.033 568.223,2358.36 600.907,2324.81 C633.591,2291.254 668.823,2259.818 705.985,2230.751 C743.147,2201.678 782.23,2174.967 822.641,2150.695 C863.057,2126.423 904.795,2104.582 947.333,2085.117 C989.872,2065.641 1033.21,2048.541 1076.901,2033.599 C1120.597,2018.659 1164.649,2005.882 1208.723,1994.966 C1182.68,1994.948 1155.09,1999.298 1127.347,2006.315 C1099.588,2013.322 1071.692,2022.991 1044.594,2033.363 C1017.475,2043.727 991.152,2054.781 965.99,2064.388 C940.813,2073.991 916.779,2082.143 893.823,2086.619 C968.953,2048.536 1048.58,2018.914 1130.924,1998.391 C1151.509,1993.257 1172.266,1988.694 1193.165,1984.703 C1198.39,1983.705 1203.623,1982.742 1208.865,1981.816 L1216.735,1980.455 L1224.76,1979.121 L1258.302,1973.553 C1302.906,1966.237 1348.164,1959.117 1394.04,1951.43 C1380.782,1955.497 1367.917,1959.768 1355.172,1964.52 C1412.882,1960.863 1472.03,1949.604 1531.168,1934.593 C1590.329,1919.576 1649.293,1900.805 1707.214,1882.064 C1717.646,1878.843 1727.954,1875.487 1738.429,1871.959 L1707.214,1882.064 C1653.735,1898.647 1600.722,1911.625 1548.484,1922.715 C1496.237,1933.783 1444.734,1942.942 1394.04,1951.43 C1416.683,1944.49 1440.321,1938.406 1465.768,1932.561 C1491.217,1926.708 1518.476,1921.109 1548.393,1914.912 C1531.373,1914.801 1511.184,1916.497 1489.433,1918.887 C1467.683,1921.282 1444.372,1924.375 1421.129,1927.25 C1360.969,1938.954 1301.157,1949.273 1242.443,1959.134 C1287.573,1950.022 1332.575,1939.911 1376.408,1928.375 C1420.236,1916.85 1462.892,1903.886 1503.191,1889.339 C1440.139,1899.741 1376.767,1909.819 1313.668,1919.923 L1219.303,1935.154 L1207.681,1937.03 L1196.222,1938.963 C1188.591,1940.285 1180.975,1941.667 1173.376,1943.104 C1158.179,1945.984 1143.049,1949.086 1128.002,1952.396 C1144.283,1947.768 1160.655,1943.447 1177.109,1939.446 C1185.337,1937.448 1193.583,1935.523 1201.85,1933.684 L1214.292,1930.977 L1227.023,1928.249 L1328.527,1906.621 C1386.043,1897.745 1443.933,1888.288 1502.021,1876.524 C1560.09,1864.746 1618.402,1850.689 1676.287,1832.215 L1663.37,1837.415 C1672.084,1834.371 1680.775,1831.23 1689.401,1827.971 C1734.524,1812.984 1779.38,1795.201 1822.983,1773.389 C1861.618,1752.813 1896.084,1725.833 1926.421,1695.586 C1932.181,1691.245 1937.83,1686.844 1943.418,1682.406 C1939.273,1688.135 1936.402,1692.758 1937.389,1694.181 C1938.366,1695.589 1943.277,1693.884 1954.352,1686.43 C1978.395,1671.033 2000.92,1652.128 2021.723,1630.749 C2042.544,1609.369 2061.642,1585.546 2079.306,1560.251 C2096.987,1534.942 2113.231,1508.171 2128.86,1480.593 C2144.489,1452.994 2159.53,1424.589 2175.078,1395.579 C2179.161,1387.969 2183.021,1379.445 2186.619,1370.176 C2188.426,1365.537 2190.151,1360.737 2191.828,1355.724 C2193.508,1350.699 2195.121,1345.497 2196.646,1340.133 C2202.763,1318.687 2207.591,1294.694 2210.757,1269.498 C2216.224,1256.496 2215.502,1248.9 2213.535,1242.084 C2214.369,1231.174 2214.942,1220.074 2215.207,1209 C2217.083,1182.129 2217.233,1154.766 2212.589,1128.556 C2214.72,1154.661 2215.874,1181.84 2215.207,1209 C2214.484,1219.105 2213.603,1229.134 2212.609,1239.063 C2210.217,1231.786 2207.265,1224.205 2208.362,1209.521 C2203.644,1255.219 2192.992,1300.216 2178.284,1343.602 C2170.91,1365.253 2162.702,1386.55 2153.515,1407.637 C2144.324,1428.696 2134.196,1449.455 2123.044,1469.749 C2100.772,1510.346 2074.413,1549.092 2044.209,1584.805 C2014.042,1620.551 1980.072,1653.213 1943.416,1682.403 C1946.839,1677.683 1951.111,1672.201 1954.932,1667.136 C1958.758,1662.074 1962.135,1657.43 1963.918,1654.488 C1952.111,1668.684 1939.635,1682.429 1926.42,1695.583 C1878.093,1732.023 1825.8,1762.666 1771.89,1789.281 C1787.319,1779.891 1800.928,1769.731 1811.708,1758.956 C1773.594,1777.753 1734.43,1794.102 1694.703,1808.65 C1654.969,1823.197 1614.663,1835.949 1574.078,1847.507 C1492.887,1870.604 1410.614,1888.99 1328.527,1906.617 L1212.26,1924.274 C1174.188,1930.004 1136.431,1937.425 1099.075,1946.569 C1024.377,1964.845 951.356,1990.001 881.334,2021.947 C921.12,2009.03 961.485,1996.313 1002.585,1984.489 C1043.676,1972.662 1085.504,1961.73 1128,1952.391 C1016.792,1983.997 910.138,2030.064 810.568,2087.885 C710.956,2145.734 618.35,2215.239 534.088,2294.443 C543.374,2274.464 556.857,2252.595 569.331,2232 C581.774,2211.378 593.194,2191.999 597.526,2176.222 C593.955,2173.297 576.932,2183.83 564.812,2191.285 C558.74,2194.988 553.868,2197.868 552.363,2197.639 C550.869,2197.42 552.715,2194.066 560.294,2185.489 C586.936,2153.148 615.08,2126.14 642.392,2102.935 C669.73,2079.713 696.247,2060.269 720.305,2042.619 C744.381,2024.963 766.013,2009.084 784.061,1992.819 C802.119,1976.556 816.61,1959.893 826.656,1940.695 C828.09,1936.155 817.01,1935.335 800.252,1936.547 C783.501,1937.743 761.094,1941.118 740.044,1944.472 C718.995,1947.783 699.302,1951.038 687.97,1950.783 C676.655,1950.547 673.636,1946.575 686.329,1935.828 C708.581,1919.589 740.613,1898.33 779.588,1876.096 C818.532,1853.833 864.451,1830.679 913.621,1809.889 C942.825,1800.027 973.056,1789.91 1004.634,1780.265 C1008.837,1779.946 1014.559,1775.144 1021.998,1769.531 C1049.552,1760.64 1077.086,1752.781 1103.847,1746.061 C1117.227,1742.699 1130.412,1739.616 1143.308,1736.816 C1149.756,1735.416 1156.131,1734.086 1162.422,1732.824 C1168.61,1731.578 1175.282,1730.311 1180.283,1729.375 L1196.023,1726.418 L1211.457,1723.603 C1221.509,1721.798 1231.074,1720.138 1240.093,1718.626 C1258.13,1715.605 1273.981,1713.18 1287.161,1711.449 C1306.765,1708.926 1325.977,1706.324 1344.979,1703.608 C1355.38,1704.371 1364.464,1706.207 1371.911,1709.431 C1382.953,1703.58 1394.158,1698.616 1405.389,1694.314 C1455.191,1686.15 1503.058,1676.694 1548.738,1665.174 C1575.092,1662.137 1601.203,1659.09 1626.293,1654.153 C1624.715,1651.304 1619.475,1648.603 1622.965,1644.027 C1677.24,1626.511 1727.516,1605.235 1772.314,1579.351 C1792.477,1572.123 1811.588,1566.44 1830.429,1563.109 C1837.569,1549.07 1849.226,1534.604 1862.815,1519.05 C1876.425,1503.511 1891.982,1486.833 1907.364,1468.606 C1922.759,1450.415 1937.969,1430.611 1951.217,1409.81 C1964.478,1389.05 1975.742,1367.306 1983.672,1346.442 L1982.662,1346.138 C1987.216,1335.915 1991.527,1325.452 1995.599,1314.761 C1997.635,1309.415 1999.61,1304.011 2001.527,1298.553 L2002.952,1294.455 L2004.302,1290.484 C2005.191,1287.838 2006.061,1285.194 2006.903,1282.554 C2013.659,1261.429 2018.942,1240.511 2022.568,1219.886 C2026.382,1213.502 2030.447,1207.413 2034.812,1201.649 C2031.234,1190.825 2031.528,1180.272 2029.31,1175.178 C2031.772,1159.139 2033.712,1144.291 2035.111,1129.685 C2036.503,1115.087 2037.327,1100.741 2037.26,1085.941 C2035.54,1083.625 2031.88,1080.562 2028.238,1076.816 C2024.598,1073.059 2020.987,1068.631 2019.323,1063.292 C2014.106,1041.474 2005.885,1020.207 1995.907,999.238 C1985.919,973.898 1973.678,947.418 1959.692,919.755 C1936.319,873.103 1908.875,824.357 1881.411,773.015 C1853.935,721.682 1826.437,667.604 1802.649,610.509 C1804.147,605.371 1807.805,602.521 1811.431,599.631 C1804.625,592.368 1799.39,582.107 1794.706,571.823 C1790.013,561.538 1785.873,551.241 1780.987,543.866 C1783.691,546.321 1786.191,547.512 1788.201,546.075 C1786.435,543.19 1784.364,539.335 1783.754,538.759 L1782.997,537.667 L1781.675,535.22 C1780.797,533.556 1779.954,531.924 1779.16,530.313 C1775.97,523.878 1773.422,517.872 1771.338,512.194 C1767.173,500.832 1764.829,490.811 1763.212,480.915 C1761.614,471.008 1760.74,461.209 1759.96,450.051 C1759.204,438.888 1758.509,426.367 1757.872,410.894 C1757.082,403.962 1755.411,397.327 1753.758,390.636 C1752.109,383.952 1750.479,377.212 1749.832,370.251 C1750.269,363.402 1750.875,356.546 1751.669,349.66 C1757.665,332.335 1763.044,315.686 1768.311,299.227 C1773.577,282.778 1778.726,266.519 1784.344,250.253 C1789.963,233.999 1796.057,217.739 1803.236,201.57 C1810.413,185.412 1818.679,169.346 1828.591,153.755 C1872.047,93.968 1929.92,46.98 1994.924,17.377 C2007.758,11.427 2019.198,7.687 2029.553,5.232 C2039.916,2.786 2049.205,1.622 2057.98,1.066 C2066.757,0.516 2075.024,0.569 2083.438,0.745 C2091.845,0.934 2100.411,1.245 2109.828,1.375 Z" id="Shape"></path>
                    <path d="M1947.016,1437.861 C1974.481,1405.358 1998.537,1368.431 2019.012,1327.772 C2010.143,1350.418 2002.272,1371.866 1991.448,1390.953 C1980.655,1409.97 1966.864,1426.626 1947.016,1437.861 Z" id="Shape"></path>
                    <path d="M641.163,1949.207 C616.215,1955.357 589.98,1966.088 563.328,1980.618 C627.697,1934.175 695.331,1892.852 765.997,1856.95 C836.658,1821.056 910.368,1790.589 986.804,1766.154 L987.296,1767.087 C957.075,1778.002 923.444,1789.753 889.211,1802.946 C854.982,1816.116 820.157,1830.738 787.595,1846.647 C755.027,1862.524 724.737,1879.675 699.462,1897.164 C674.179,1914.643 653.919,1932.414 641.163,1949.207 Z" id="Shape"></path>
                    <path d="M1866.429,1518.799 C1866.892,1516.864 1867.744,1514.75 1868.648,1512.566 C1868.762,1512.512 1868.834,1512.444 1868.95,1512.335 C1868.629,1514.555 1867.737,1516.715 1866.429,1518.799 Z" id="Shape"></path>
                    <path d="M531.403,2261.091 L521.836,2270.404 C543.951,2244.714 567.465,2220.076 592.24,2196.637 C574.087,2217.201 552.811,2238.604 531.403,2261.091 Z" id="Shape"></path>
                    <path d="M747.088,2075.279 C741.224,2079.061 735.386,2082.93 729.652,2086.81 C743.047,2074.691 756.668,2062.605 770.546,2050.752 C766.021,2055.954 754.463,2066.762 747.088,2075.279 Z" id="Shape"></path>
                </g>
                <g id="Group" transform="translate(48.000000, 2426.000000)">
                    <path d="M2985.992,2108.33 C3022.623,2090.342 3059.733,2072.12 3097.881,2054.135 C3116.963,2045.145 3136.312,2036.216 3156.094,2027.443 C3175.883,2018.672 3196.093,2010.052 3217.068,2001.745 C3227.559,1997.593 3238.245,1993.52 3249.211,1989.565 C3254.694,1987.587 3260.248,1985.639 3265.887,1983.728 L3274.096,1980.984 L3282.092,1978.37 C3303.399,1971.479 3324.602,1965.182 3345.78,1959.338 C3388.13,1947.663 3430.387,1937.774 3472.68,1929.322 C3557.25,1912.485 3641.937,1901.31 3726.607,1896.282 C3768.939,1893.793 3811.26,1892.886 3853.532,1893.844 C3895.801,1894.811 3938.023,1897.637 3980.11,1902.81 C3912.788,1894.562 3846.546,1892.523 3781.299,1894.388 C3716.046,1896.308 3651.764,1902.2 3588.221,1911.155 C3635.852,1904.436 3682.075,1899.989 3727.829,1897.693 C3773.585,1895.416 3818.875,1895.279 3864.651,1897.687 C3910.424,1900.125 3956.701,1905.068 4004.345,1913.763 C4028.163,1918.125 4052.322,1923.447 4076.88,1930.025 C4101.437,1936.611 4126.4,1944.452 4151.739,1953.996 C4135.556,1950.951 4115.382,1946.101 4093.639,1941.355 C4071.902,1936.578 4048.598,1931.896 4026.274,1928.363 C4003.951,1924.806 3982.617,1922.362 3964.851,1921.472 C3947.083,1920.576 3932.893,1921.198 3924.792,1923.624 C3865.03,1918.654 3805.874,1917.889 3747.296,1919.993 C3688.714,1922.127 3630.701,1927.163 3573.15,1934.561 C3515.593,1941.99 3458.517,1951.759 3401.69,1964.047 C3373.271,1970.205 3344.916,1977.002 3316.516,1984.625 C3302.308,1988.441 3288.114,1992.459 3273.825,1996.76 C3258.781,2001.312 3244.286,2006.125 3230.125,2011.086 C3201.827,2021.018 3174.826,2031.518 3148.41,2042.18 C3122.011,2052.85 3096.233,2063.699 3070.792,2074.525 C3019.941,2096.188 2970.39,2117.748 2921.352,2138.192 C2872.343,2158.637 2823.886,2178.007 2775.902,2195.303 C2727.945,2212.584 2680.429,2227.815 2633.971,2239.592 C2668.44,2222.083 2700.558,2207.838 2731.419,2195.953 C2762.259,2184.048 2791.786,2174.463 2820.515,2165.693 C2877.971,2148.102 2932.112,2133.871 2985.992,2108.33 Z" id="Shape"></path>
                    <path d="M2489.243,2347.015 C2465.35,2351.039 2441.197,2353.007 2416.963,2352.48 C2394.452,2350.301 2372.471,2346.231 2351.477,2339.975 C2330.48,2333.729 2310.493,2325.28 2291.88,2314.592 C2273.261,2303.912 2256.022,2290.985 2240.313,2276.06 C2224.599,2261.139 2210.415,2244.23 2197.736,2225.796 C2191.397,2216.578 2185.428,2206.986 2179.821,2197.074 C2177.007,2192.107 2174.316,2187.112 2171.654,2181.949 L2167.502,2173.849 C2166.187,2171.238 2164.895,2168.619 2163.627,2165.992 C2153.477,2144.978 2144.82,2123.463 2137.963,2101.59 C2131.103,2079.719 2126.046,2057.494 2123.01,2035.127 C2119.97,2012.76 2118.953,1990.254 2120.027,1967.838 C2119.036,1992.231 2120.758,2016.954 2125.118,2041.55 C2129.469,2066.151 2136.448,2090.615 2145.703,2114.6 C2150.328,2126.593 2155.518,2138.469 2161.213,2150.201 C2164.059,2156.067 2167.035,2161.895 2170.125,2167.687 L2172.467,2172.022 L2174.916,2176.463 C2176.695,2179.686 2178.187,2182.355 2179.809,2185.163 C2192.643,2207.43 2207.222,2228.083 2223.554,2246.381 C2239.878,2264.697 2257.944,2280.625 2277.619,2293.832 C2297.29,2307.059 2318.592,2317.582 2341.264,2325.56 C2363.93,2333.544 2387.952,2338.994 2412.798,2342.368 C2437.644,2345.75 2463.284,2347.086 2489.243,2347.015 Z" id="Shape"></path>
                    <path d="M2698.244,2329.158 C2746.249,2313.369 2793.935,2295.289 2841.333,2276.224 C2888.733,2257.149 2935.85,2237.06 2982.787,2216.985 C3029.728,2196.917 3076.488,2176.824 3123.258,2157.878 C3146.644,2148.411 3170.034,2139.235 3193.471,2130.581 C3216.907,2121.932 3240.388,2113.792 3263.964,2106.555 C3240.512,2114.118 3217.209,2122.526 3193.97,2131.391 C3170.731,2140.262 3147.555,2149.604 3124.375,2159.193 C3078.021,2178.384 3031.644,2198.554 2984.895,2218.589 C2938.151,2238.626 2891.041,2258.57 2843.326,2277.395 C2795.616,2296.205 2747.293,2313.932 2698.244,2329.158 Z" id="Shape"></path>
                    <path d="M2686.812,286.934 C2687.779,289.288 2684.407,291.408 2679.288,293.428 C2673.803,294.605 2668.914,296.072 2664.926,297.895 C2589.604,302.555 2513.272,312.961 2437.343,327.66 C2455.706,321.935 2472.129,313.557 2491.279,309.341 C2512.39,305.862 2529.451,304.039 2544.57,302.783 C2559.69,301.536 2572.876,300.866 2586.282,299.941 C2599.689,299.025 2613.316,297.85 2629.34,295.82 C2645.363,293.803 2663.78,290.909 2686.812,286.934 Z" id="Shape"></path>
                    <path d="M2781.958,283.26 C2783.509,287.771 2785.111,292.307 2791.465,295.881 C2750.163,294.485 2708.182,295.231 2665.822,297.841 C2670.794,296.341 2675.538,294.904 2679.288,293.428 C2693.198,290.513 2711.257,289.407 2729.585,288.391 C2747.929,287.352 2766.527,286.41 2781.958,283.26 Z" id="Shape"></path>
                    <path d="M107.547,552.225 C91.249,585.645 78.088,620.638 67.536,656.487 C56.989,692.347 49.038,729.081 43.309,766.254 C37.588,803.43 34.089,841.054 32.64,878.796 C31.199,916.539 31.808,954.404 34.485,992.09 C37.17,1029.775 41.914,1067.283 48.969,1104.295 C52.5,1122.8 56.614,1141.18 61.383,1159.388 C63.766,1168.492 66.317,1177.553 69.044,1186.563 L71.123,1193.311 L71.895,1195.711 L72.634,1198.297 L74.568,1204.961 L76.644,1211.826 C87.969,1248.349 103.12,1284.258 123.98,1317.377 C134.406,1333.905 146.266,1349.69 159.661,1364.137 C173.038,1378.581 187.957,1391.671 204.084,1402.707 C186.911,1387.604 171.611,1370.211 158.434,1351.525 C145.239,1332.826 134.133,1312.848 124.788,1292.298 C115.434,1271.739 107.812,1250.595 101.52,1229.259 C98.374,1218.588 95.562,1207.865 93.038,1197.122 L92.132,1193.194 C91.881,1192.074 91.647,1190.907 91.382,1189.822 L89.502,1182.423 C88.171,1177.137 86.895,1171.846 85.674,1166.551 C75.914,1124.195 69.47,1081.647 65.706,1040.106 C61.953,998.565 60.934,958.03 62.284,919.728 C63.629,881.425 67.363,845.362 72.927,812.776 C78.474,780.186 85.858,751.089 94.091,726.595 C102.317,702.088 111.367,682.199 119.966,667.686 C128.576,653.161 136.672,643.997 143.26,640.585 C149.887,637.189 152.623,640.672 152.483,649.517 C152.367,658.388 149.453,672.698 145.412,691.677 C141.37,710.654 136.249,734.349 131.611,761.852 C126.953,789.341 122.792,820.634 120.17,854.395 C117.531,888.145 116.427,924.35 117.388,961.386 C118.336,998.416 121.343,1036.274 126.574,1073.189 C129.188,1091.645 132.351,1109.863 136.065,1127.605 C137.921,1136.476 139.915,1145.228 142.043,1153.83 C143.107,1158.131 144.204,1162.394 145.336,1166.616 L147.148,1173.218 C147.508,1174.428 147.763,1175.59 148.058,1176.767 L148.879,1180.092 C157.101,1213.278 168.182,1243.414 181.318,1268.269 C178.856,1261.169 177.219,1255.772 175.887,1251.273 C174.567,1246.768 173.585,1243.143 172.64,1239.512 C170.79,1232.242 168.94,1224.976 166.104,1210.246 C168.884,1224.979 172.393,1239.628 177.542,1253.134 C182.674,1266.622 189.471,1278.965 198.316,1288.633 C192.445,1275.264 185.845,1258.487 180.241,1239.86 C174.594,1221.259 169.908,1200.859 166.744,1180.899 L165.587,1173.325 C165.331,1171.806 165.124,1170.331 164.827,1168.787 C164.528,1167.279 164.153,1165.511 163.99,1164.43 C163.162,1159.511 162.415,1154.662 161.759,1149.918 C160.444,1140.43 159.482,1131.364 158.883,1123.013 C157.681,1106.308 157.925,1092.477 159.595,1083.741 C166.085,1100.512 173.039,1116.954 180.474,1132.929 C178.374,1095.066 175.646,1049.31 175.757,999.74 C175.814,950.229 178.74,896.933 186.642,845.541 C190.574,819.859 195.723,794.685 202.134,770.847 C208.535,747.009 216.205,724.519 224.926,704.201 C233.639,683.878 243.403,665.747 253.684,650.431 C263.958,635.098 274.733,622.6 285.267,613.08 C273.747,625.528 262.769,640.183 252.699,656.665 C242.622,673.144 233.452,691.43 225.361,711.069 C209.158,750.377 197.325,794.976 190.027,842.142 C182.725,889.34 179.866,939.187 181.523,989.851 C182.357,1015.183 184.323,1040.73 187.502,1066.223 C190.682,1091.709 195.071,1117.159 200.822,1142.114 C201.54,1145.233 202.281,1148.343 203.044,1151.443 L203.62,1153.767 L204.59,1157.364 C204.764,1157.981 204.891,1158.537 205.019,1159.093 L205.409,1160.774 L206.107,1163.818 C207.443,1169.871 208.878,1175.869 210.426,1181.791 C213.52,1193.637 217.049,1205.199 221.057,1216.338 C229.065,1238.615 239.031,1259.213 250.999,1276.763 C262.974,1294.348 276.82,1308.745 292.679,1319.614 C300.619,1325.062 309.106,1329.662 318.213,1333.426 C327.325,1337.184 337.077,1340.106 347.45,1342.156 C368.18,1346.273 391.406,1346.825 415.753,1344.174 C440.111,1341.539 465.509,1335.794 491.017,1327.772 C516.545,1319.741 542.214,1309.459 567.643,1297.558 C593.081,1285.652 618.299,1272.128 643.146,1257.405 C655.571,1250.042 667.905,1242.372 680.14,1234.437 L689.297,1228.436 C690.859,1227.395 692.046,1226.627 693.61,1225.554 L698.094,1222.5 C704.309,1218.257 710.511,1213.976 716.699,1209.664 C741.456,1192.418 766.002,1174.64 790.358,1156.413 C839.074,1119.96 887.025,1081.718 934.467,1042.316 C1029.368,963.503 1122.2,880.084 1215.82,796.681 C1309.439,713.282 1403.935,629.825 1502.168,551.014 C1551.276,511.616 1601.31,473.39 1652.501,436.994 C1703.685,400.597 1756.039,366.039 1809.605,333.996 C1868.909,297.197 1929.642,263.031 1991.836,232.21 C2007.385,224.508 2023.024,217.014 2038.747,209.737 C2046.609,206.099 2054.491,202.512 2062.397,198.987 L2074.271,193.74 L2086.1,188.605 L2097.666,183.624 L2109.431,178.628 C2117.277,175.319 2125.129,172.057 2132.988,168.835 C2148.705,162.394 2164.447,156.123 2180.217,150.017 C2243.295,125.603 2306.802,103.75 2370.888,84.506 C2434.975,65.281 2499.64,48.673 2565.095,35.238 C2630.55,21.826 2696.805,11.571 2764.087,5.615 C2831.357,-0.308 2899.697,-1.955 2969.042,2.717 C3038.33,7.421 3108.763,18.499 3178.801,38.934 C3213.791,49.151 3248.634,61.725 3282.834,76.937 C3317.028,92.14 3350.572,109.993 3382.788,130.503 C3406.778,146.44 3438.015,170.426 3470.598,202.462 C3474.667,206.463 3478.758,210.583 3482.857,214.823 L3489.007,221.272 L3494.972,227.689 L3500.743,234.005 C3502.947,236.449 3505.141,238.929 3507.331,241.44 C3511.705,246.466 3516.045,251.624 3520.341,256.91 C3537.52,278.052 3553.908,301.264 3568.787,325.988 C3583.681,350.705 3597.049,376.926 3608.526,403.921 C3620.004,430.918 3629.594,458.683 3637.2,486.473 C3644.821,514.264 3650.475,542.076 3654.339,569.215 C3658.211,596.357 3660.299,622.825 3660.964,648.005 C3663.695,692.52 3662.234,737.222 3656.586,781.581 C3650.938,825.937 3641.095,869.967 3626.921,913.042 C3612.743,956.104 3594.207,998.226 3571.158,1038.458 C3548.131,1078.68 3520.544,1116.996 3488.705,1152.117 C3480.746,1160.895 3472.525,1169.471 3464.056,1177.826 L3458.03,1183.714 L3452.176,1189.339 C3448.143,1193.167 3444.081,1196.943 3439.99,1200.661 C3423.63,1215.537 3406.848,1229.545 3389.826,1242.739 C3355.764,1269.123 3320.79,1292.228 3285.832,1312.856 C3250.855,1333.491 3215.873,1351.673 3181.306,1368.25 C3146.73,1384.818 3112.55,1399.774 3078.97,1413.777 C3006.729,1441.775 2936.97,1464.318 2870.89,1485.759 C2837.86,1496.461 2805.756,1506.849 2774.869,1517.319 C2743.993,1527.786 2714.324,1538.339 2686.378,1549.281 C2672.406,1554.75 2658.87,1560.313 2645.857,1565.992 C2639.351,1568.831 2632.976,1571.698 2626.745,1574.595 L2622.099,1576.774 L2619.796,1577.867 L2619.43,1578.042 C2619.408,1578.052 2619.409,1578.059 2619.395,1578.063 C2619.374,1578.072 2619.35,1578.077 2619.332,1578.089 L2619.113,1578.201 L2614.25,1580.793 C2588.344,1594.681 2562.978,1609.525 2538.432,1625.234 C2489.366,1656.64 2443.461,1691.584 2403.691,1729.14 C2383.821,1747.905 2365.515,1767.306 2349.272,1787.052 C2333.027,1806.793 2318.861,1826.874 2307.215,1846.828 C2295.559,1866.788 2286.446,1886.578 2279.968,1905.847 C2273.485,1925.142 2269.594,1943.875 2268.12,1962.49 C2266.659,1981.116 2267.582,1999.732 2271.131,2019.155 C2274.685,2038.55 2280.94,2058.787 2290.197,2079.807 C2292.509,2085.058 2295.007,2090.353 2297.687,2095.684 C2299.027,2098.349 2300.414,2101.024 2301.847,2103.706 L2304.504,2108.624 L2306.694,2112.619 C2311.989,2122.091 2317.469,2130.586 2322.989,2138.005 C2328.511,2145.434 2334.061,2151.773 2339.553,2157.142 C2345.054,2162.515 2350.488,2166.919 2356.028,2170.66 C2360.446,2173.641 2364.771,2176.861 2369.246,2180.261 L2383.116,2190.86 C2387.846,2194.479 2392.668,2198.12 2396.908,2201.626 C2401.137,2205.138 2404.749,2208.522 2406.801,2211.694 C2408.856,2214.862 2409.323,2217.833 2407.378,2220.408 C2405.455,2222.962 2401.09,2225.141 2393.974,2226.291 C2386.885,2227.413 2377.042,2227.537 2364.951,2225.215 C2358.909,2224.041 2352.321,2222.243 2345.253,2219.487 C2338.182,2216.723 2330.631,2213.01 2322.593,2207.782 C2309.012,2199.539 2295.761,2188.51 2283.021,2174.3 C2276.663,2167.202 2270.453,2159.342 2264.466,2150.776 C2261.473,2146.493 2258.534,2142.036 2255.659,2137.416 L2250.674,2129.136 C2249.186,2126.648 2247.726,2124.154 2246.302,2121.655 C2234.894,2101.662 2225.537,2081.367 2218.469,2060.963 C2211.393,2040.552 2206.599,2020.04 2204.166,1999.437 C2201.73,1978.832 2201.656,1958.109 2203.984,1937.2 C2206.311,1916.299 2211.059,1895.199 2218.186,1874.059 C2232.388,1831.783 2256.272,1789.456 2287.155,1749.49 C2286.026,1756.024 2281.279,1765.342 2275.077,1776.392 C2268.865,1787.439 2261.234,1800.245 2254.108,1813.631 C2246.961,1827.008 2240.347,1840.964 2235.563,1854.036 C2230.754,1867.104 2227.757,1879.265 2227.122,1888.944 C2238.4,1859.704 2253.613,1831.944 2271.612,1805.357 C2289.633,1778.773 2310.42,1753.393 2333.399,1728.916 C2356.4,1704.437 2381.605,1680.847 2409.028,1657.827 C2436.465,1634.813 2466.137,1612.356 2498.444,1590.325 C2455.351,1619.706 2414.967,1651.861 2379.006,1686.288 C2343.069,1720.684 2311.584,1757.431 2286.986,1795.161 C2302.349,1771.602 2320.685,1748.108 2341.476,1725.182 C2362.265,1702.248 2385.495,1679.88 2410.623,1658.387 C2460.901,1615.389 2518.697,1575.892 2580.502,1541.437 C2584.366,1539.283 2588.246,1537.15 2592.141,1535.037 L2596.192,1532.838 C2596.47,1532.673 2596.768,1532.542 2597.053,1532.39 L2597.506,1532.158 L2598.81,1531.524 C2606.365,1527.875 2614.09,1524.281 2621.985,1520.75 C2637.77,1513.684 2654.197,1506.849 2671.138,1500.196 C2705.026,1486.887 2740.934,1474.319 2778.126,1461.927 C2852.567,1437.109 2932.038,1413.123 3013.498,1384.177 C3043.458,1373.947 3073.618,1365.841 3104.816,1357.386 C3136.005,1348.916 3168.267,1340.124 3202.255,1328.08 C3236.205,1316.007 3271.984,1300.699 3309.262,1278.399 C3327.877,1267.241 3346.839,1254.307 3365.837,1239.067 C3384.822,1223.825 3403.854,1206.259 3422.277,1185.882 C3395.622,1207.478 3367.993,1226.794 3340.008,1244.126 C3312.014,1261.464 3283.66,1276.834 3255.303,1290.674 C3198.55,1318.335 3141.871,1339.986 3086.241,1358.699 C3030.584,1377.382 2975.868,1393.097 2922.454,1407.969 C2869.053,1422.823 2816.905,1436.792 2766.705,1451.555 C2716.545,1466.31 2668.27,1481.862 2623.625,1499.707 C2612.471,1504.166 2601.553,1508.767 2590.913,1513.525 L2589.005,1514.379 L2588.161,1514.733 C2587.606,1514.954 2587.065,1515.204 2586.525,1515.457 L2586.083,1515.663 L2585.099,1516.158 L2583.053,1517.194 L2578.968,1519.28 C2573.527,1522.073 2568.108,1524.911 2562.713,1527.793 C2541.136,1539.32 2519.95,1551.556 2499.287,1564.465 C2457.969,1590.281 2418.696,1618.801 2382.791,1649.776 C2346.907,1680.734 2314.384,1714.199 2287.152,1749.488 C2287.301,1748.8 2287.557,1748.034 2287.541,1747.483 C2263.385,1779.194 2243.788,1811.286 2229.304,1843.185 C2214.799,1875.103 2205.423,1906.73 2201.184,1938.009 C2196.948,1969.309 2197.774,2000.378 2203.771,2031.907 C2209.763,2063.405 2221.025,2095.408 2237.487,2127.574 C2226.56,2107.945 2217.25,2087.907 2210.579,2068.229 C2203.881,2048.564 2199.836,2029.264 2198.769,2011.429 C2200.213,2035.093 2204.718,2059.168 2212.193,2083.392 C2215.925,2095.5 2220.397,2107.638 2225.556,2119.752 C2228.135,2125.809 2230.887,2131.858 2233.804,2137.897 L2236.091,2142.548 L2238.64,2147.619 C2240.066,2150.464 2241.516,2153.267 2242.993,2156.029 C2254.81,2178.133 2268.266,2197.404 2283.136,2213.342 C2298.034,2229.307 2314.274,2242.02 2332.559,2251.988 C2350.829,2261.945 2371.37,2269.206 2394.398,2273.749 C2417.387,2278.3 2442.75,2280.053 2469.522,2279.268 C2496.3,2278.493 2524.433,2275.216 2553.161,2270.023 C2581.902,2264.829 2611.246,2257.735 2640.829,2249.286 C2599.99,2264.113 2558.858,2276.211 2518.482,2283.825 C2478.151,2291.441 2438.592,2294.452 2402.284,2290.998 C2384.128,2289.282 2366.814,2285.975 2350.5,2280.962 C2334.178,2275.949 2318.839,2269.242 2304.372,2260.691 C2289.907,2252.143 2276.287,2241.72 2263.493,2229.358 C2250.704,2217.007 2238.759,2202.718 2227.779,2186.766 C2222.286,2178.796 2217.039,2170.412 2212.036,2161.676 L2207.88,2154.3 C2206.604,2152.014 2205.348,2149.723 2204.113,2147.426 C2201.645,2142.831 2199.261,2138.214 2196.967,2133.575 C2187.784,2115.018 2180.03,2096.117 2173.901,2076.993 C2161.617,2038.737 2155.952,1999.63 2157.554,1960.473 C2159.101,1921.324 2167.932,1882.044 2183.262,1843.708 C2198.554,1805.368 2220.25,1768.075 2246.499,1732.787 C2272.757,1697.476 2303.505,1664.151 2337.148,1633.105 C2370.81,1602.048 2407.376,1573.24 2445.791,1546.717 C2465.003,1533.455 2484.686,1520.763 2504.745,1508.652 C2514.774,1502.594 2524.899,1496.685 2535.106,1490.92 C2540.21,1488.038 2545.335,1485.191 2550.48,1482.384 L2558.21,1478.199 L2565.38,1474.385 C2566.162,1473.966 2566.949,1473.559 2567.755,1473.187 L2570.812,1471.729 L2578.547,1468.112 C2583.73,1465.721 2588.955,1463.366 2594.225,1461.048 C2604.764,1456.412 2615.471,1451.919 2626.319,1447.546 C2648.014,1438.802 2670.264,1430.541 2692.896,1422.595 C2738.17,1406.703 2784.925,1392.054 2832.348,1377.334 C2879.781,1362.613 2927.914,1347.837 2976.245,1331.688 C3024.57,1315.531 3073.129,1298.014 3121.287,1277.597 C3169.416,1257.166 3217.211,1233.819 3263.254,1205.725 C3208.334,1231.943 3149.789,1256.523 3089.942,1279.109 C3030.116,1301.725 2969.043,1322.483 2909.601,1341.742 C2850.151,1360.982 2792.402,1378.788 2739.014,1395.021 C2712.31,1403.128 2686.685,1410.825 2662.354,1417.989 C2638.018,1425.151 2614.975,1431.777 2593.297,1437.662 C2631.504,1421.17 2671.542,1406.578 2712.553,1392.882 C2753.581,1379.19 2795.609,1366.395 2838.217,1353.567 C2880.831,1340.737 2924.042,1327.887 2967.588,1314.045 C3011.131,1300.195 3055.027,1285.367 3098.941,1268.37 C3142.837,1251.363 3186.792,1232.182 3230.013,1209.289 C3273.193,1186.4 3315.695,1159.709 3355.586,1127.748 C3360.571,1123.76 3365.508,1119.679 3370.401,1115.526 C3372.846,1113.447 3375.282,1111.351 3377.701,1109.231 C3380.122,1107.12 3382.558,1104.941 3384.835,1102.898 C3387.165,1100.801 3389.661,1098.538 3392.096,1096.262 C3394.534,1093.991 3396.952,1091.7 3399.344,1089.38 C3404.136,1084.749 3408.831,1080.02 3413.443,1075.212 C3431.876,1055.964 3448.842,1035.338 3464.186,1013.619 C3494.904,970.177 3519.124,922.453 3536.648,872.52 C3527.959,902.739 3517.407,931.898 3504.869,960.57 C3522.043,931.884 3536.45,901.266 3547.906,869.428 C3559.365,837.585 3567.885,804.525 3573.417,770.856 C3584.48,703.507 3583.602,633.729 3570.705,565.75 C3557.848,497.794 3532.805,431.536 3496.332,371.961 C3487.228,357.071 3477.423,342.607 3466.97,328.645 C3461.744,321.664 3456.351,314.813 3450.809,308.093 C3448.038,304.733 3445.229,301.407 3442.378,298.118 L3438.077,293.21 L3433.806,288.448 L3429.931,284.181 L3425.694,279.575 C3422.855,276.517 3419.992,273.488 3417.103,270.485 C3411.327,264.48 3405.451,258.586 3399.482,252.807 C3387.545,241.25 3375.24,230.156 3362.635,219.541 C3344.66,204.219 3326.042,190.054 3306.517,176.694 C3325.674,189.952 3344.542,204.265 3362.635,219.541 C3385.695,239.168 3407.355,260.38 3427.353,282.869 L3434.447,290.954 C3437.015,293.901 3439.545,296.879 3442.043,299.881 C3447.041,305.881 3451.89,311.989 3456.604,318.185 C3466.028,330.58 3474.872,343.351 3483.129,356.424 C3516.184,408.751 3539.596,465.806 3553.844,524.063 C3568.108,582.367 3573.344,641.944 3570.338,700.655 C3567.308,759.373 3556.02,817.322 3536.649,872.521 C3544.063,846.719 3550.1,820.257 3554.664,792.975 C3559.22,765.693 3562.298,737.584 3563.595,708.505 C3564.884,679.43 3564.402,649.378 3561.606,618.296 C3558.802,587.223 3553.694,555.108 3545.475,522.114 C3548.193,540.387 3550.818,560.558 3552.68,582.174 C3554.551,603.786 3555.659,626.842 3555.508,650.794 C3555.365,674.743 3553.957,699.586 3550.987,724.692 C3548.029,749.797 3543.499,775.162 3537.331,800.105 C3523.239,865.98 3497.76,929.797 3460.973,986.989 C3442.602,1015.568 3421.417,1042.442 3397.718,1066.908 C3391.796,1073.027 3385.717,1078.992 3379.489,1084.797 L3374.831,1089.085 L3370.301,1093.173 C3367.217,1095.937 3364.106,1098.662 3360.973,1101.354 C3348.448,1112.128 3335.565,1122.331 3322.429,1132.01 C3342.542,1116.734 3361.826,1100.237 3380.126,1082.429 C3398.777,1064.22 3415.86,1044.605 3431.199,1023.948 C3461.918,982.63 3485.61,937.248 3502.383,890.569 C3519.176,843.862 3529.112,795.838 3532.864,748.468 C3536.617,701.085 3534.203,654.325 3526.343,609.766 C3532.295,677.251 3526.726,745.692 3509.59,811.408 C3501.018,844.256 3489.531,876.413 3475.103,907.285 C3460.678,938.152 3443.298,967.732 3423.057,995.293 C3412.939,1009.073 3402.11,1022.346 3390.608,1035.016 C3384.858,1041.35 3378.94,1047.535 3372.861,1053.556 C3369.821,1056.566 3366.742,1059.536 3363.624,1062.465 C3360.515,1065.387 3357.31,1068.305 3354.229,1071.056 C3329.193,1093.499 3302.335,1113.708 3274.548,1131.789 C3246.739,1149.888 3217.954,1165.928 3188.704,1180.354 C3159.446,1194.78 3129.717,1207.598 3099.824,1219.253 C3132.288,1205.493 3164.391,1190.463 3195.719,1173.601 C3227.037,1156.744 3257.586,1138.037 3286.67,1116.971 C3301.209,1106.44 3315.377,1095.324 3329.054,1083.578 C3335.883,1077.716 3342.631,1071.66 3349.167,1065.516 C3352.413,1062.476 3355.758,1059.278 3358.994,1056.076 C3362.244,1052.866 3365.445,1049.61 3368.596,1046.307 C3393.815,1019.894 3415.856,990.628 3434.404,959.449 C3467.016,907.972 3490.152,850.55 3503.397,790.847 C3516.643,731.125 3520.103,669.022 3513.239,607.604 C3506.382,546.223 3489.084,485.402 3460.713,429.269 C3446.538,401.222 3429.612,374.383 3410.06,349.42 C3405.175,343.178 3400.129,337.052 3394.921,331.057 L3391.032,326.632 L3387.257,322.387 C3384.652,319.476 3382.016,316.59 3379.351,313.729 C3368.691,302.286 3357.557,291.252 3345.993,280.668 C3353.273,286.83 3360.477,293.263 3367.465,299.774 C3353.778,286.459 3339.443,273.817 3324.574,261.964 C3286.853,230.619 3245.158,204.005 3201.178,182.383 C3157.188,160.728 3110.969,143.999 3063.846,131.512 C3021.383,120.839 2978.546,114.709 2936.092,111.927 C2893.617,109.151 2851.497,109.71 2809.926,112.586 C2795.781,112.568 2781.755,112.783 2767.797,113.169 C2781.045,110.889 2790.949,108.89 2791.073,107.151 C2791.135,106.286 2788.748,105.484 2783.108,104.83 C2777.469,104.183 2768.577,103.679 2755.645,103.575 C2700.419,102.431 2644.124,106.522 2587.461,114.354 C2530.776,122.194 2473.696,133.767 2416.328,147.764 C2358.947,161.774 2301.265,178.195 2243.049,196.032 C2213.938,204.955 2184.689,214.239 2155.247,223.81 C2140.533,228.594 2125.741,233.462 2110.946,238.38 L2088.658,245.785 L2066.189,253.399 C2034.712,264.15 1998.797,279.571 1960.658,298.814 C1922.508,318.044 1882.163,341.108 1841.469,366.64 C1817.428,377.228 1806.633,385.969 1797.719,394.855 C1780.509,406.258 1763.201,418.042 1746.088,429.967 C1703.692,458.031 1661.881,487.266 1623.429,518.937 C1663.005,489.541 1704.128,459.211 1746.088,429.967 C1762.029,419.443 1777.956,409.061 1793.814,398.83 C1784.518,408.506 1774.993,419.071 1751.548,434.5 C1825.26,387.558 1902.434,344.091 1983.142,306.221 C2023.487,287.286 2064.697,269.746 2106.7,253.856 L2122.349,247.984 L2138.105,242.186 C2148.626,238.359 2159.181,234.61 2169.769,230.936 C2190.944,223.588 2212.248,216.541 2233.675,209.792 C2319.382,182.826 2407.013,160.444 2496.186,143.672 C2585.346,126.971 2676.114,115.832 2767.796,113.17 L2731.685,119.187 C2719.672,121.249 2708.822,123.289 2702.483,124.799 C2737.968,119.304 2773.745,115.087 2809.925,112.588 C2869.228,112.687 2928.808,116.667 2987.962,126.048 C3047.077,135.44 3105.825,150.296 3162.425,172.449 C3128.08,160.713 3095.167,153.626 3065.986,150.674 C3106.912,161.936 3147.142,176.368 3185.812,194.537 C3224.474,212.686 3261.553,234.606 3295.918,260.359 C3313.101,273.228 3329.605,287.039 3345.302,301.728 C3353.152,309.072 3360.8,316.634 3368.235,324.401 L3373.772,330.264 L3379.172,336.135 C3382.764,340.045 3386.434,344.166 3389.944,348.273 C3418.221,381.263 3441.755,418.254 3460.048,457.604 C3478.36,496.961 3491.486,538.649 3499.466,581.266 C3507.454,623.891 3510.32,667.461 3508.165,710.832 C3506.003,754.204 3498.81,797.401 3486.536,839.27 C3474.263,881.128 3456.887,921.673 3434.404,959.45 C3412.365,994.259 3385.983,1026.294 3355.893,1054.256 C3325.991,1081.952 3293.483,1106.122 3259.495,1127.355 C3225.504,1148.593 3190.099,1166.922 3154.065,1183.202 C3118.018,1199.481 3081.326,1213.728 3044.392,1226.742 C2970.494,1252.747 2895.67,1273.893 2821.357,1295.34 C2784.196,1306.058 2747.141,1316.828 2710.383,1328.309 C2673.632,1339.794 2637.166,1351.982 2601.334,1365.666 C2680.273,1340.659 2762.475,1320.432 2846.191,1298.205 C2888.051,1287.104 2930.308,1275.55 2972.698,1262.699 C3015.08,1249.843 3057.611,1235.705 3099.824,1219.254 C3044.381,1242.735 2987.928,1262.546 2931.505,1281.06 C2875.071,1299.564 2818.6,1316.726 2762.841,1334.654 C2707.109,1352.596 2652.006,1371.256 2598.924,1393.123 C2585.66,1398.592 2572.53,1404.267 2559.574,1410.192 L2549.89,1414.683 L2540.619,1419.111 C2539.212,1419.761 2537.866,1420.536 2536.491,1421.251 L2531.803,1423.762 L2522.345,1428.902 C2497.179,1442.712 2472.472,1457.338 2448.315,1472.769 C2400.015,1503.639 2353.851,1537.713 2311.031,1575.243 C2268.252,1612.773 2228.765,1653.805 2194.918,1698.662 C2161.115,1743.477 2133.001,1792.253 2114.287,1844.245 C2104.93,1870.219 2097.951,1896.957 2093.716,1924.13 C2089.469,1951.3 2087.987,1978.897 2089.337,2006.472 C2084.271,1986.886 2080.859,1964.772 2079.595,1941.773 C2078.294,1918.776 2079.153,1894.931 2081.571,1871.948 C2083.958,1848.953 2087.867,1826.839 2091.821,1806.992 C2095.764,1787.136 2099.714,1769.527 2101.894,1755.261 C2099.508,1754.985 2092.966,1763.361 2085.648,1775.26 C2078.299,1787.131 2070.356,1802.598 2064.269,1815.705 C2058.136,1828.788 2053.729,1839.434 2052.022,1840.987 C2051.175,1841.765 2050.991,1840.265 2051.772,1835.706 C2052.569,1831.153 2054.317,1823.531 2057.732,1812.222 C2069.509,1770.762 2086.488,1732.516 2106.011,1697.829 C2125.569,1663.111 2147.67,1631.868 2170.63,1603.598 C2193.616,1575.323 2217.489,1549.993 2241.26,1526.961 C2265.047,1503.933 2288.752,1483.199 2311.78,1464.163 C2357.884,1426.111 2401.153,1394.776 2439.084,1366.149 C2448.575,1358.996 2457.742,1352.017 2466.563,1345.158 C2470.973,1341.728 2475.296,1338.328 2479.53,1334.951 L2485.812,1329.902 L2486.588,1329.273 L2486.982,1328.956 L2487.462,1328.592 L2489.448,1327.102 C2490.771,1326.105 2492.088,1325.101 2493.439,1324.176 L2495.45,1322.761 L2496.446,1322.058 C2496.786,1321.82 2497.12,1321.584 2497.356,1321.395 L2500.502,1318.976 L2506.682,1314.164 C2510.751,1310.967 2514.722,1307.789 2518.589,1304.621 C2526.323,1298.285 2533.646,1291.983 2540.532,1285.654 C2542.927,1282.795 2539.173,1281.888 2530.909,1282.517 C2522.644,1283.155 2509.863,1285.348 2494.187,1288.964 L2488.176,1290.386 L2485.075,1291.15 L2483.502,1291.545 L2482.7,1291.749 L2481.667,1292.064 C2478.906,1292.921 2476.031,1293.763 2473.212,1294.809 L2471.069,1295.57 L2470.003,1295.949 L2469.49,1296.129 L2469.088,1296.249 L2465.847,1297.226 C2457.147,1299.866 2448.003,1302.787 2438.629,1305.919 C2419.88,1312.179 2400.215,1319.311 2381.303,1326.55 C2362.387,1333.778 2344.223,1341.112 2328.406,1347.474 C2312.588,1353.828 2299.11,1359.198 2289.539,1362.28 C2279.971,1365.366 2274.296,1366.133 2274.153,1363.357 C2274.018,1360.602 2279.403,1354.262 2292.185,1343.697 C2314.123,1326.852 2340.95,1307.622 2372.176,1287.448 C2387.789,1277.361 2404.5,1267.036 2422.249,1256.642 C2426.686,1254.042 2431.187,1251.44 2435.753,1248.835 L2442.768,1244.863 L2448.229,1241.865 C2450.054,1240.842 2451.957,1239.955 2453.831,1239 L2462.366,1234.72 L2469.974,1230.956 C2475.069,1228.46 2480.205,1225.99 2485.381,1223.548 C2526.796,1203.994 2570.658,1186.255 2615.406,1169.833 C2660.165,1153.398 2705.83,1138.245 2751.075,1123.556 C2803.963,1108.799 2856.901,1093.55 2909.112,1076.598 C2915.888,1075.364 2925.866,1069.019 2938.236,1061.322 C2982.526,1045.417 3024.048,1028.862 3061.109,1011.501 C3098.199,994.169 3130.731,976.039 3157.902,957.84 C3171.504,948.747 3183.798,939.653 3194.859,930.694 C3200.388,926.214 3205.609,921.765 3210.545,917.368 L3214.445,913.854 L3217.576,910.971 C3219.638,909.045 3221.647,907.113 3223.607,905.176 C3239.279,889.674 3251.659,873.905 3261.368,860.012 C3275.853,839.387 3287.918,816.404 3297.266,791.809 C3304.281,779.62 3310.797,768.907 3317.448,760.602 C3317.841,742.995 3317.904,725.585 3317.476,708.4 C3321.716,672.372 3320.436,635.674 3313.788,600.861 C3307.161,566.022 3295.2,533.129 3278.661,504.066 C3270.968,486.997 3261.841,470.674 3251.104,455.428 C3250.273,454.303 3249.336,453.072 3248.248,451.658 L3245.83,448.405 C3244.265,446.308 3242.679,444.226 3241.07,442.161 C3237.853,438.032 3234.549,433.97 3231.157,429.977 C3224.372,421.993 3217.229,414.289 3209.719,406.909 C3208.391,409.971 3210.715,417.489 3202.654,414.895 C3167.257,384.755 3125.876,360.427 3079.56,341.863 C3033.286,323.281 2982.272,310.529 2928.733,302.943 C2885.724,292.988 2844.242,284.889 2806.355,276.162 C2775.178,283.022 2734.024,288.348 2686.167,295.06 C2638.339,301.716 2583.797,309.795 2526.692,320.611 C2469.607,331.371 2410.003,344.834 2352.56,360.756 C2295.121,376.638 2239.865,394.948 2191.569,414.355 L2192.211,415.231 L2173.511,422.316 C2167.505,424.617 2161.575,426.928 2155.614,429.292 C2143.713,434.025 2131.841,438.911 2120.002,443.966 C2096.323,454.071 2072.767,464.818 2049.33,476.177 C2002.457,498.902 1956.059,524.075 1910.044,551.432 C1893.502,558.179 1877.442,564.364 1862.015,569.758 C1842.049,588.047 1818.798,603.916 1809.066,613.413 C1772.238,636.114 1738.14,657.541 1705.364,678.453 C1672.592,699.373 1641.15,719.794 1609.768,740.779 C1600.545,751.126 1586.174,774.429 1563.707,793.131 C1517.749,829.424 1474.343,866.462 1432.178,903.543 L1277.525,1032.605 C1188.851,1106.172 1098.91,1179.361 1005.377,1249.019 C958.618,1283.843 910.959,1317.77 862.183,1350.339 C849.989,1358.48 837.725,1366.535 825.388,1374.498 L806.715,1386.446 L801.695,1389.634 L796.438,1392.905 L786.586,1398.92 C760.227,1414.86 733.177,1430.017 705.253,1444.189 C696.495,1444.845 692.656,1441.742 688.733,1438.707 C673.087,1450.39 652.253,1461.219 631.063,1470.772 C609.89,1480.369 588.351,1488.643 571.681,1496.377 C577.725,1492.562 581.134,1489.291 579.264,1487.425 C552.136,1499.698 528.935,1507.533 508.156,1512.886 C487.347,1518.214 468.952,1521.088 450.554,1522.714 C432.129,1524.291 413.683,1524.683 392.065,1523.798 C381.247,1523.327 369.621,1522.505 356.747,1521.055 C343.872,1519.581 329.739,1517.5 313.965,1514.146 C299.641,1511.617 285.455,1509.317 271.195,1506.162 C256.955,1503.006 242.638,1498.982 228.574,1493.01 C215.199,1486.158 202.227,1478.35 189.822,1469.602 C175.122,1456.825 161.673,1443.288 149.483,1429.325 C137.283,1415.36 126.331,1400.976 116.452,1386.413 C96.689,1357.254 81.135,1327.474 68.171,1297.555 C61.702,1282.584 55.89,1267.551 50.643,1252.443 C48.022,1244.888 45.535,1237.313 43.183,1229.716 C42.007,1225.918 40.864,1222.113 39.751,1218.303 L38.107,1212.583 L36.696,1207.549 L36.216,1205.831 L35.764,1204.413 L34.138,1199.09 C33.017,1195.373 31.918,1191.646 30.846,1187.908 C28.701,1180.431 26.65,1172.911 24.699,1165.339 C20.799,1150.196 17.291,1134.849 14.222,1119.255 C9.229,1087.898 5.707,1056.583 3.488,1025.264 C1.276,993.947 0.373,962.628 0.791,931.307 C1.671,868.686 7.676,805.982 20.469,743.785 C25.463,719.119 31.463,698.488 37.876,680.524 C44.306,662.558 51.155,647.252 58.299,633.168 C65.458,619.085 72.911,606.217 80.943,593.168 C88.992,580.11 97.606,566.876 107.547,552.225 Z" id="Shape"></path>
                    <path d="M2409.638,333.251 C2360.069,343.58 2310.7,355.742 2261.838,369.59 C2237.409,376.517 2213.109,383.867 2188.998,391.643 L2179.967,394.579 L2170.779,397.622 L2152.873,403.629 C2141.121,407.645 2129.4,411.807 2117.713,416.117 C2130.07,410.954 2142.267,405.909 2154.358,401.047 L2163.407,397.426 L2172.886,393.684 C2178.992,391.272 2185.08,388.9 2191.154,386.569 C2215.448,377.252 2239.509,368.629 2263.576,361.116 C2311.69,346.112 2359.912,335.498 2409.638,333.251 Z" id="Shape"></path>
                    <path d="M2211.282,1388.936 C2167.59,1413.683 2120.906,1447.674 2074.758,1492.589 C2103.319,1461.255 2133.197,1432.338 2163.984,1405.372 C2194.779,1378.409 2226.492,1353.394 2258.936,1329.994 C2291.386,1306.599 2324.573,1284.822 2358.445,1264.462 C2375.383,1254.285 2392.493,1244.463 2409.781,1234.985 L2422.781,1227.941 L2429.306,1224.466 L2438.898,1219.43 L2448.612,1214.789 L2455.621,1211.509 C2460.29,1209.342 2464.95,1207.218 2469.6,1205.132 C2506.81,1188.457 2543.401,1174.226 2579.29,1161.341 C2615.182,1148.474 2650.388,1136.971 2684.906,1126.122 C2753.914,1104.472 2820.307,1085.334 2883.32,1065.15 L2883.921,1066.047 C2858.876,1074.704 2831.7,1083.338 2802.896,1092.133 C2774.09,1100.934 2743.656,1109.896 2712.119,1119.373 C2649.08,1138.357 2581.481,1159.311 2514.368,1186.495 C2497.601,1193.294 2480.881,1200.484 2464.319,1208.134 C2460.178,1210.046 2456.048,1211.986 2451.931,1213.954 L2445.214,1217.194 C2442.038,1218.739 2438.809,1220.252 2435.716,1221.966 L2428.368,1225.924 L2422.722,1229.023 L2411.561,1235.267 C2382.032,1251.998 2354.411,1269.376 2329.219,1286.913 C2278.821,1321.95 2238.227,1357.771 2211.282,1388.936 Z" id="Shape"></path>
                    <path d="M2679.288,293.428 C2675.538,294.904 2670.794,296.341 2665.822,297.841 C2665.536,297.831 2665.301,297.855 2664.926,297.895 C2668.914,296.072 2673.803,294.604 2679.288,293.428 Z" id="Shape"></path>
                    <path d="M2063.134,1964.209 C2062.775,1973.144 2062.719,1981.885 2062.919,1990.777 C2060.718,1957.148 2062.702,1923.11 2068.686,1889.675 C2074.651,1856.23 2084.576,1823.418 2097.685,1791.904 C2088.354,1817.558 2079.901,1845.056 2073.727,1874.007 C2067.536,1902.938 2063.675,1933.324 2063.134,1964.209 Z" id="Shape"></path>
                    <path d="M2524.3,2405.798 C2558.963,2401.223 2593.141,2394.116 2626.797,2385.391 C2660.457,2376.653 2693.61,2366.287 2726.334,2354.867 C2791.785,2331.987 2855.533,2304.985 2918.438,2276.539 C2959.43,2259.437 2999.991,2241.841 3040.299,2224.425 C3080.607,2207.017 3120.663,2189.759 3160.653,2173.525 C3200.635,2157.332 3240.585,2142.045 3280.528,2129.549 C3290.51,2126.437 3300.488,2123.512 3310.448,2120.84 C3320.429,2118.175 3330.567,2115.639 3340.639,2113.263 C3360.821,2108.504 3381.033,2104.316 3401.209,2100.631 C3382.739,2105.123 3364.354,2109.929 3346.093,2115.091 C3336.963,2117.672 3327.865,2120.343 3318.809,2123.115 C3309.793,2125.861 3300.94,2128.74 3292.006,2131.801 C3256.349,2144.046 3220.88,2158.416 3185.511,2173.366 C3150.138,2188.352 3114.842,2204.018 3079.451,2219.73 C3044.061,2235.451 3008.578,2251.243 2972.85,2266.694 C2901.399,2297.573 2828.969,2327.246 2754.485,2352.205 C2717.246,2364.658 2679.49,2375.909 2641.129,2385.184 C2602.775,2394.441 2563.793,2401.744 2524.3,2405.798 Z" id="Shape"></path>
                    <path d="M1878.225,1963.632 C1875.502,2004.356 1876.657,2045.868 1881.764,2086.675 C1886.842,2127.495 1895.826,2167.561 1907.981,2205.774 C1894.182,2168.11 1883.295,2128.428 1876.32,2087.506 C1869.32,2046.607 1866.288,2004.502 1867.58,1962.647 C1869.002,1970.588 1870.894,1971.187 1872.767,1969.645 C1874.646,1968.098 1876.587,1964.416 1878.225,1963.632 Z" id="Shape"></path>
                    <path d="M2345.357,1491.234 C2334.308,1499.703 2323.388,1508.427 2312.77,1517.273 C2338.54,1492.518 2365.57,1468.735 2393.604,1446.109 C2388.798,1450.66 2380.478,1457.978 2371.517,1466.173 C2362.549,1474.36 2352.952,1483.432 2345.357,1491.234 Z" id="Shape"></path>
                    <path d="M2396.196,2604.281 C2365.407,2601.23 2333.761,2595.939 2301.881,2587.666 C2270.023,2579.413 2237.943,2568.131 2206.918,2553.589 C2244.902,2568.74 2283.631,2578.1 2321.335,2582.39 C2340.598,2591.242 2366.585,2599.133 2396.196,2604.281 Z" id="Shape"></path>
                </g>
                <g id="Group" transform="translate(398.000000, 4988.000000)">
                    <path d="M317.122,402.367 C343.67,376.758 372.468,353.012 402.179,332.775 C373.722,355.246 344.485,377.688 317.122,402.367 Z" id="Shape"></path>
                    <path d="M1419.426,51.479 C1419.248,48.963 1422.762,47.826 1427.777,47.328 C1432.86,47.74 1437.499,47.766 1441.485,47.221 C1507.547,65.242 1570.709,87.65 1631.317,112.641 C1615.524,108.443 1599.724,107.89 1583.819,102.921 C1566.793,96.429 1553.156,90.812 1541.044,85.718 C1528.926,80.633 1518.328,76.077 1507.287,71.888 C1496.244,67.704 1484.755,63.884 1470.796,60.427 C1456.837,56.98 1440.4,53.889 1419.426,51.479 Z" id="Shape"></path>
                    <path d="M287.908,430.575 C287.368,431.728 286.807,432.906 286.22,434.051 C277.897,443.143 269.978,452.219 262.359,461.395 C261.152,462.336 260.079,463.231 258.707,464.261 C267.533,452.685 277.404,441.462 287.908,430.575 Z" id="Shape"></path>
                    <path d="M1336.031,35.475 C1335.412,30.796 1334.76,26.06 1329.585,21.606 L1336.536,22.997 L1338.236,23.343 L1339.496,23.624 C1340.338,23.807 1341.17,24.009 1342.02,24.178 L1344.69,24.726 L1348.315,25.425 L1355.549,26.857 C1365.179,28.794 1374.754,30.834 1384.27,32.979 C1403.303,37.269 1422.107,41.963 1440.698,47.006 C1435.969,46.954 1431.446,46.97 1427.777,47.328 C1414.919,46.21 1398.856,42.625 1382.192,39.643 C1373.865,38.148 1365.397,36.797 1357.16,35.946 C1353.043,35.516 1348.984,35.213 1345.032,35.073 L1343.556,35.028 L1342.822,35.01 C1342.6,35.009 1342.456,35.02 1342.269,35.025 C1341.563,35.051 1340.862,35.087 1340.166,35.133 C1338.755,35.214 1337.471,35.328 1336.031,35.475 Z" id="Shape"></path>
                    <path d="M470.582,91.318 C458.677,96.677 448.454,104.004 440.052,110.939 C431.639,117.869 425.034,124.399 420.112,128.182 C388.698,140.615 357.508,154.581 325.664,171.408 C293.842,188.254 261.334,207.96 227.862,232.363 C223.609,237.277 216.293,244.068 208.097,252.267 C204,256.367 199.687,260.82 195.425,265.544 C194.359,266.725 193.295,267.921 192.242,269.138 C191.133,270.404 190.359,271.376 188.605,273.276 L186.319,275.834 L184.007,278.468 C182.435,280.278 180.882,282.096 179.366,283.931 C160.422,296.635 140.909,312.263 121.893,330.266 C132.972,317.385 144.648,304.786 156.872,292.601 C162.98,286.506 169.233,280.522 175.601,274.652 L180.353,270.315 L184.958,266.193 L191.502,260.471 C208.856,245.424 226.748,230.996 245.107,217.215 C281.823,189.641 320.407,164.681 360.308,142.384 C440.152,97.757 525.096,63.894 612.156,39.498 C565.905,54.152 518.955,71.221 470.582,91.318 Z" id="Shape"></path>
                    <path d="M3553.18,182.309 C3556.796,203.018 3557.742,225.062 3556.262,247.577 C3554.791,270.102 3550.92,293.097 3545.095,315.987 C3533.436,361.825 3514.049,407.092 3490.381,449.712 C3466.676,492.385 3438.687,532.511 3408.846,569.431 C3378.955,606.378 3347.255,640.12 3314.903,670.736 C3337.123,657.318 3359.47,640.995 3381.027,622.471 C3402.589,603.949 3423.369,583.242 3442.726,561.203 C3462.097,539.171 3480.053,515.817 3496.236,492.072 C3512.426,468.327 3526.838,444.188 3539.362,420.596 C3551.896,397.004 3562.54,373.963 3571.489,352.401 C3580.457,330.84 3587.721,310.759 3593.86,293.071 C3606.149,257.725 3613.964,231.764 3624.053,222.999 C3629.046,218.624 3632.93,220.3 3635.741,227.336 C3638.525,234.349 3640.152,246.701 3639.853,263.038 C3639.557,279.364 3637.27,299.636 3632.434,322.193 C3627.619,344.754 3620.254,369.575 3610.395,395.113 C3600.554,420.662 3588.24,446.925 3574.019,472.667 C3559.811,498.419 3543.71,523.653 3526.613,547.45 C3509.523,571.259 3491.443,593.63 3473.498,613.964 C3455.56,634.313 3437.761,652.623 3421.414,668.657 C3431.621,661.77 3436.627,658.135 3441.633,654.523 C3446.617,650.876 3451.606,647.246 3461.373,639.629 C3451.614,647.269 3441.687,654.616 3432.606,662.252 C3423.522,669.898 3415.281,677.832 3408.779,686.856 C3419.283,680.292 3431.74,671.422 3444.65,661.263 C3457.575,651.119 3470.95,639.69 3483.605,628.366 C3496.27,617.05 3508.228,605.848 3518.63,596.438 C3529.038,587.037 3537.923,579.446 3544.593,575.524 C3538.781,589.696 3532.505,603.777 3525.751,617.745 C3551.624,596.528 3579.522,566.709 3605.729,530.488 C3631.962,494.29 3656.488,451.708 3676.375,405.542 C3696.305,359.413 3711.53,309.613 3720.258,259.9 C3724.655,235.067 3727.451,210.29 3728.778,186.278 C3730.129,162.273 3729.973,139.04 3728.958,117.43 C3731.712,143.426 3732.214,169.091 3730.904,194.14 C3729.593,219.198 3726.493,243.655 3721.997,267.465 C3712.972,315.098 3698.521,360.168 3680.459,403.172 C3662.347,446.168 3640.563,487.145 3615.68,526.358 C3590.773,565.553 3562.74,602.993 3531.474,638.411 C3500.188,673.797 3465.661,707.196 3427.193,737.484 C3407.953,752.612 3387.713,766.942 3366.331,780.162 C3344.95,793.375 3322.42,805.484 3298.619,815.983 C3274.824,826.469 3249.737,835.35 3223.409,841.812 C3210.25,845.04 3196.791,847.67 3183.08,849.559 L3180.506,849.904 L3178.262,850.189 L3176.607,850.379 L3175.168,850.577 L3166.476,851.805 C3160.497,852.627 3154.509,853.399 3148.51,854.116 C3100.517,859.876 3051.886,862.287 3003.267,861.47 C2954.641,860.666 2906.039,856.655 2857.932,849.912 C2809.816,843.176 2762.19,833.738 2715.283,822.215 C2621.43,799.147 2530.535,767.891 2442.609,732.893 C2354.658,697.85 2269.574,659.037 2186.796,619.575 C2104.023,580.085 2023.535,539.9 1944.928,501.371 C1856.064,460.302 1768.393,422.957 1681.652,392.376 C1594.979,361.799 1509.18,338.034 1425.852,324.351 C1384.209,317.499 1343.23,313.171 1303.291,311.632 L1302.355,311.595 L1301.132,311.521 L1298.653,311.365 L1293.687,311 L1293.077,310.955 L1292.589,310.932 L1291.613,310.882 L1289.661,310.784 L1285.76,310.597 C1280.559,310.357 1275.364,310.146 1270.176,309.965 C1259.799,309.603 1249.448,309.36 1239.127,309.232 C1218.485,308.978 1197.964,309.189 1177.598,309.849 C1096.138,312.495 1017.14,322.307 942.74,338.628 C928.629,341.133 909.589,343.792 887.622,347.069 C865.656,350.342 840.765,354.247 814.948,359.059 C789.126,363.852 762.387,369.559 736.624,376.01 C710.851,382.441 686.065,389.619 663.915,396.838 C625.757,412.528 589.411,430.638 555.544,451.219 C521.671,471.791 490.298,494.841 461.984,520.219 C454.907,526.565 448.02,533.055 441.328,539.686 L436.347,544.684 L435.728,545.312 L435.573,545.469 C435.512,545.529 435.471,545.573 435.473,545.578 L435.4,545.687 L435.103,546.113 C434.844,546.428 434.861,546.558 434.739,546.758 C434.382,547.504 434.053,548.241 433.755,548.97 C432.575,551.895 431.853,554.658 431.697,557.197 C431.539,559.731 431.939,562.04 433.001,563.995 C434.058,565.946 435.798,567.559 438.237,568.55 C439.573,569.779 441.293,570.626 442.957,571.027 C444.622,571.438 446.141,571.484 447.371,571.454 C449.856,571.36 451.288,571.031 452.447,571.037 L452.501,571.038 L452.601,571.055 L453.024,571.147 L456.913,572.01 L464.784,573.715 C470.069,574.844 475.432,575.951 480.862,577.045 C491.723,579.229 502.851,581.344 514.2,583.404 C536.905,587.529 560.466,591.431 584.787,595.293 L660.401,607.078 C673.513,609.139 686.917,611.277 700.81,613.606 C707.758,614.772 714.833,615.988 722.086,617.281 L733.113,619.285 L739.954,620.555 L746.354,621.847 C849.717,643.131 955.668,666.461 1064.243,694.321 C1118.536,708.26 1173.505,723.349 1229.188,740.04 C1284.87,756.741 1341.272,775.043 1398.396,795.62 C1421.151,803.803 1445.123,815.604 1464.535,827.589 C1483.96,839.559 1498.809,851.642 1503.72,859.862 C1508.637,868.112 1503.666,872.342 1483.637,869.458 C1473.619,868.042 1459.834,864.876 1441.588,859.833 C1423.341,854.794 1400.632,847.876 1372.727,839.143 C1279.685,812.123 1186.859,789.251 1094.429,768.41 C1002.008,747.587 909.953,728.846 818.689,710.584 C830.493,706.633 857.804,710.852 887.55,716.238 C917.294,721.601 949.453,728.19 970.91,728.32 C903.894,709.295 842.626,694.03 781.85,680.489 C766.657,677.109 751.494,673.841 736.282,670.662 L733.195,670.02 C731.579,669.685 729.892,669.37 728.304,669.078 L721.861,667.869 L709.248,665.6 C700.924,664.144 692.739,662.786 684.628,661.488 C652.233,656.319 620.804,652.022 588.898,647.632 L654.122,656.413 C676.449,659.448 699.279,662.587 723.75,666.558 L728.37,667.32 L731.833,667.916 L734.839,668.471 L743.071,669.961 L759.553,672.961 L792.588,679.048 C814.642,683.149 836.756,687.338 858.925,691.647 C831.226,686.261 803.248,680.923 775.06,675.62 L731.521,667.474 L718.582,665.285 L706.897,663.406 C699.176,662.19 691.583,661.041 684.073,659.927 C654.071,655.497 625.239,651.591 596.875,647.538 C568.546,643.499 540.762,639.36 513.654,634.804 C500.106,632.527 486.736,630.146 473.608,627.63 C467.045,626.372 460.543,625.081 454.115,623.751 L444.53,621.73 L442.153,621.214 L441.091,620.984 L440.657,620.898 L439.221,620.619 C431.596,619.118 423.866,617.361 416.081,615.039 C408.32,612.695 400.429,609.826 393.005,605.564 C389.313,603.424 385.752,600.91 382.653,597.866 C379.555,594.835 376.964,591.234 375.316,587.252 C374.358,584.272 374.774,580.986 376.175,577.83 C377.573,574.664 379.931,571.624 382.748,568.891 C385.569,566.151 388.846,563.708 392.163,561.567 C395.484,559.422 398.846,557.575 401.95,555.911 C405.058,554.245 407.907,552.763 410.322,551.251 C412.742,549.736 414.728,548.193 416.245,546.303 C417.768,544.407 418.826,542.168 419.557,539.135 C419.921,537.614 420.231,535.913 420.483,533.925 C420.537,533.418 420.622,532.929 420.668,532.382 L420.765,531.579 L420.805,531.159 L420.941,530.664 L421.201,529.638 L422.477,527.689 L425.082,523.669 L420.489,527.308 C419.531,528.083 419.429,528.124 419.063,528.378 L418.188,528.954 C417.174,529.589 416.145,530.229 415.13,530.907 C413.091,532.253 411.015,533.652 408.951,535.147 C404.811,538.125 400.62,541.401 396.5,545.054 C392.386,548.709 388.329,552.742 384.615,557.268 C380.918,561.788 377.53,566.829 375.194,572.414 C372.847,577.97 371.711,584.148 372.584,590.04 C373.412,595.942 376.129,601.323 379.778,605.884 C383.436,610.47 387.981,614.356 392.952,617.814 C397.936,621.268 403.377,624.296 409.12,627.058 C414.867,629.815 420.923,632.302 427.215,634.601 C430.379,635.753 433.531,636.843 436.866,637.919 L437.218,638.029 L437.994,638.236 L439.602,638.661 L442.83,639.505 L449.329,641.169 C453.68,642.268 458.069,643.345 462.49,644.403 C497.893,652.875 535.239,660.073 573.768,666.735 C593.05,670.071 612.654,673.274 632.655,676.493 C652.67,679.721 673.048,682.944 694.194,686.502 L710.237,689.259 L718.409,690.712 L727.834,692.442 L758.442,698.553 L818.684,710.584 C818.051,710.768 817.311,710.889 816.86,711.157 C888.82,724.781 957.621,739.545 1025.843,756.056 C1094.069,772.587 1161.735,790.808 1231.54,811.929 C1187.681,800.241 1142.881,790.11 1105.17,778.011 C1205.338,810.138 1305.071,844.433 1403.268,885.167 C1452.351,905.542 1501.03,927.551 1548.98,951.804 C1596.921,976.053 1644.139,1002.56 1690.068,1031.928 C1622.069,995.681 1551.978,964.116 1480.689,936.112 C1409.387,908.113 1336.868,883.656 1263.692,861.741 C1117.33,817.939 968.308,784.211 820.099,754.213 L764.573,743.129 L736.856,737.694 L723.012,735 L718.796,734.188 L714.576,733.435 L707.183,732.147 C687.572,728.791 668.583,725.886 649.848,723.071 L594.442,714.843 C557.98,709.393 522.279,703.796 487.527,697.362 C470.16,694.145 453.042,690.723 436.28,687.01 L424.768,684.399 L417.183,682.583 C412.135,681.341 407.105,680.037 402.098,678.655 C392.085,675.891 382.16,672.827 372.398,669.294 C362.642,665.755 353.038,661.755 343.803,656.989 C334.586,652.218 325.699,646.677 317.824,639.87 C309.975,633.089 303.159,624.893 298.964,615.385 C296.861,610.65 295.427,605.632 294.7,600.527 C293.967,595.421 293.936,590.238 294.462,585.134 C295.524,574.904 298.728,565.051 302.906,555.742 C307.108,546.421 312.31,537.583 318.019,529.079 C323.737,520.575 329.982,512.401 336.552,504.427 C326.263,511.863 316.269,520.923 307.376,531.348 C298.511,541.773 290.671,553.585 285.415,566.608 C282.802,573.113 280.867,579.925 279.964,586.906 C279.054,593.879 279.214,601.023 280.686,607.941 C282.139,614.861 284.921,621.507 288.715,627.51 C292.506,633.525 297.257,638.904 302.491,643.663 C313.01,653.19 325.225,660.337 337.372,666.376 C349.572,672.403 361.828,677.329 373.741,681.98 C385.671,686.62 397.289,690.968 408.645,695.572 C411.485,696.722 414.31,697.888 417.123,699.077 L421.334,700.877 L422.422,701.342 C422.573,701.412 422.852,701.513 423.111,701.609 L423.886,701.896 L426.978,703.047 C435.202,706.121 443.255,709.252 451.079,712.479 C443.46,710.924 435.889,709.311 428.374,707.627 L418.395,705.341 L410.494,703.432 C399.975,700.823 389.516,697.959 379.176,694.734 C368.837,691.507 358.61,687.926 348.604,683.822 C338.603,679.714 328.812,675.091 319.48,669.667 C310.165,664.239 301.278,658.005 293.491,650.547 C285.724,643.112 279.084,634.34 274.936,624.353 C270.738,614.399 269.269,603.359 270.327,592.582 C271.35,581.777 274.648,571.28 279.101,561.404 C283.57,551.511 289.192,542.179 295.393,533.309 C301.604,524.437 308.415,516.019 315.559,507.946 C322.707,499.875 330.198,492.148 337.896,484.695 C341.746,480.968 345.645,477.306 349.604,473.724 C351.572,471.921 353.577,470.161 355.571,468.395 L361.764,463.035 C407.202,423.811 457.971,390.208 512.532,362.445 C497.207,372.289 482.806,382.679 469.145,393.894 C502.852,377.097 537.41,360.98 573.041,346.041 C608.657,331.103 645.341,317.358 682.895,305.343 C720.441,293.333 758.847,283.055 797.625,275.038 C836.395,267.017 875.527,261.247 914.348,258.176 C928.27,257.222 942.071,256.443 956.108,255.905 C942.277,256.301 928.294,257.099 914.348,258.176 C842.965,263.169 772.8,273.857 705.255,290.991 C637.731,308.118 572.828,331.745 512.531,362.444 C538.709,345.641 567.445,330.702 599.359,317.469 C631.278,304.246 666.384,292.725 705.47,283.041 C683.402,284.821 656.971,289.76 628.792,297.377 C600.605,304.975 570.699,315.269 541.479,327.189 C504.032,344.729 467.949,364.793 433.779,387.337 C416.693,398.608 400.082,410.493 384.004,422.969 C375.964,429.205 368.06,435.593 360.294,442.122 L354.496,447.046 L349.065,451.743 C346.005,454.402 343.116,456.956 340.169,459.614 C342.366,457.508 344.568,455.407 346.796,453.332 L350.267,450.103 L354.604,446.154 C360.398,440.905 366.266,435.74 372.196,430.654 C384.055,420.482 396.171,410.634 408.509,401.117 C433.186,382.081 458.757,364.371 484.903,347.95 C537.201,315.097 591.786,287.47 646.085,264.138 C603.541,276.081 561.581,291.279 520.976,309.806 C480.372,328.327 441.129,350.186 404.05,375.264 C385.509,387.799 367.507,401.132 350.129,415.22 C345.785,418.741 341.479,422.31 337.214,425.925 L330.982,431.261 L325.377,436.148 C317.976,442.672 310.697,449.375 303.551,456.247 C289.267,469.997 275.452,484.396 262.594,499.743 C249.771,515.096 237.823,531.404 228.136,549.132 C237.551,529.553 249.865,511.44 263.351,494.253 C276.883,477.072 291.689,460.794 307.223,445.096 C311.113,441.176 315.051,437.295 319.042,433.457 L325.069,427.73 L328.195,424.818 L331.579,421.711 C340.629,413.449 349.879,405.396 359.318,397.559 C378.202,381.891 397.837,367.08 418.128,353.166 C488.133,309.227 564.715,275.697 644.432,251.26 C724.202,226.809 807.123,211.312 891.248,203.072 C884.892,204.063 878.47,205.088 872.137,206.177 C884.856,204.406 897.607,202.815 910.344,201.356 C976.232,195.777 1042.88,194.618 1109.72,197.323 C1169.731,198.647 1228.889,198.819 1288.21,200.807 L1303.074,202.864 L1310.494,203.951 C1313.065,204.35 1315.673,204.722 1318.214,205.068 L1311.198,205.503 L1309.636,205.626 L1308.237,205.776 C1307.337,205.88 1306.5,205.994 1305.737,206.117 C1302.682,206.614 1300.791,207.262 1300.615,208.112 C1300.439,208.962 1301.978,210.011 1305.779,211.327 C1306.744,211.659 1307.788,211.996 1309.095,212.372 C1310.421,212.748 1311.907,213.161 1313.566,213.561 L1318.876,214.79 L1324.957,216.124 C1362.347,224.852 1400.395,233.72 1439.149,243.65 C1477.89,253.572 1517.324,264.555 1557.117,277.355 C1636.678,302.931 1717.67,335.855 1795.705,380.872 C1816.176,392.668 1840.942,404.961 1868.475,417.867 C1896.007,430.767 1926.307,444.281 1957.844,458.332 C1973.252,469.398 1982.858,472.238 1992.066,473.608 C2005.659,479.679 2019.447,485.902 2033.192,492.15 C2066.162,508.474 2099.166,525.222 2132.796,539.072 C2100.575,523.136 2066.891,507.47 2033.192,492.15 C2020.817,485.996 2008.464,479.986 1996.151,474.175 C2006.015,475.44 2016.662,476.366 2034.909,485.421 C1978.75,455.96 1922.156,426.372 1864.731,397.728 C1807.308,369.091 1749.044,341.384 1689.59,315.945 C1630.145,290.521 1569.488,267.356 1507.52,248.215 C1445.576,229.084 1382.283,214.004 1318.214,205.068 C1326.097,204.589 1335.62,204.463 1344.358,204.462 C1353.096,204.455 1361.047,204.567 1365.775,204.378 C1352.89,203.486 1340.033,202.797 1327.199,202.31 L1317.541,201.972 C1315.858,201.915 1314.174,201.857 1312.491,201.767 L1307.557,201.542 L1288.209,200.808 C1204.765,189.66 1120.342,185.41 1036.51,188.875 C1061.475,186.242 1084.787,183.301 1105.439,179.2 C1045.323,176.88 984.975,178.21 924.96,183.536 C864.953,188.863 805.267,198.192 746.686,212.018 C688.119,225.846 630.645,244.19 575.427,267.585 C520.219,290.963 467.279,319.428 418.129,353.166 C394.457,368.014 371.552,384.035 349.57,401.219 C344.076,405.516 338.633,409.879 333.258,414.323 C330.568,416.541 327.896,418.781 325.236,421.036 C322.647,423.23 320.255,425.276 317.81,427.401 C308.073,435.853 298.528,444.608 289.187,453.653 C270.532,471.751 252.592,490.991 236.671,512.061 C228.732,522.6 221.314,533.608 214.843,545.198 C208.386,556.782 202.858,568.971 199.085,581.74 C195.317,594.481 193.382,607.864 194.328,621.124 C195.225,634.374 199.129,647.344 205.502,658.909 C211.847,670.513 220.461,680.729 230.162,689.655 C239.881,698.594 250.689,706.31 262.009,713.179 C273.34,720.045 285.204,726.072 297.357,731.528 C309.515,736.978 321.971,741.856 334.614,746.325 C347.258,750.794 360.092,754.852 373.055,758.614 C379.537,760.494 386.053,762.298 392.597,764.037 L402.434,766.597 L412.507,769.111 L407.089,767.318 L401.881,765.554 L391.546,761.99 C384.688,759.591 377.892,757.151 371.159,754.651 C357.694,749.651 344.476,744.422 331.542,738.798 C318.611,733.171 305.956,727.155 293.713,720.484 C281.48,713.806 269.637,706.481 258.588,698.07 C247.564,689.66 237.286,680.132 228.87,668.985 C220.457,657.884 214.072,645 211.244,631.109 C208.346,617.236 209.075,602.661 212.381,588.798 C215.674,574.894 221.335,561.636 228.136,549.133 C224.14,557.487 220.705,566.114 218.149,575.007 C215.594,583.892 213.932,593.06 213.591,602.312 C213.241,611.554 214.258,620.875 216.834,629.788 C219.39,638.705 223.489,647.165 228.722,654.834 C233.951,662.517 240.27,669.423 247.187,675.611 C254.109,681.804 261.63,687.296 269.458,692.254 C285.144,702.158 301.995,709.988 319.152,716.697 C336.334,723.39 353.883,728.937 371.552,733.823 C380.389,736.261 389.261,738.529 398.156,740.662 C402.604,741.728 407.053,742.761 411.516,743.765 L419.055,745.441 L426.792,747.112 C468.133,755.894 510.289,762.9 552.79,769.448 C574.048,772.72 595.405,775.867 616.865,779.073 C638.327,782.284 659.884,785.536 681.619,789.178 C687.054,790.09 692.501,791.029 697.965,792.004 L706.176,793.5 L708.477,793.932 L710.659,794.37 L714.652,795.177 L746.591,801.71 C767.879,806.115 789.157,810.629 810.415,815.276 C895.439,833.865 980.174,854.64 1063.817,879.312 C1031.593,878.312 994.024,875.371 959.228,874.098 C924.436,872.805 892.433,873.124 871.437,878.074 C871.695,882.736 898.815,891.697 917.735,898.606 C936.661,905.52 947.464,910.138 915.436,905.605 C856.764,898.959 802.654,891.285 752.757,883.69 L716.13,878.044 L698.406,875.28 L694.115,874.612 L690.437,874.104 L682.084,872.973 C659.836,870.045 638.096,867.623 617.278,865.546 C575.587,861.437 537.529,858.684 503.218,858.52 C468.874,858.382 438.215,860.907 410.511,868.016 C405.054,870.348 417.608,878.868 438.189,889.567 C458.756,900.288 487.275,912.984 513.381,924.708 C539.516,936.46 563.146,947.394 574.714,955.33 C580.508,959.296 583.325,962.507 582.011,964.655 C580.689,966.801 575.253,967.889 564.323,967.559 C546.179,966.038 524.19,963.936 498.823,961.001 C473.45,958.05 444.721,954.289 412.955,949.039 C405.011,947.725 396.875,946.311 388.548,944.782 L375.913,942.398 L369.487,941.136 L365.627,940.341 L360.625,939.251 C333.713,933.288 306.388,925.512 279.552,915.96 C252.706,906.413 226.367,895.124 201.14,882.281 C175.908,869.427 151.76,855.052 129.108,839.005 C116.477,829.366 104.288,819.206 92.66,808.351 C81.038,797.496 69.97,785.937 59.747,773.429 C49.534,760.925 40.161,747.45 32.202,732.859 C24.242,718.287 17.742,702.576 13.292,686.104 C11.972,677.703 5.875,664.5 1.33,646.972 C0.052,632.042 0.305,617.136 1.732,602.493 C3.159,587.843 5.75,573.444 9.183,559.327 C16.087,531.089 26.268,503.932 38.529,477.638 C50.817,451.357 65.26,425.911 81.372,401.513 C97.476,377.127 115.286,353.818 134.178,332.14 C143.62,321.3 153.334,310.876 163.207,300.935 C168.151,295.968 173.123,291.115 178.135,286.395 C183.071,281.728 188.445,276.848 192.641,273.132 C206.22,261.116 219.535,250.079 232.361,240.005 C258.026,219.864 281.72,203.597 301.871,190.956 C331.867,172.203 362.239,155.258 393.03,139.87 C410.237,133.761 425.541,130.125 438.196,129.136 C455.813,116.652 474.335,105.464 493.33,95.505 C577.94,62.757 663.299,40.345 747.896,25.318 C795.639,20.408 842.993,18.588 889.427,17.616 C888.149,14.517 880.212,11.018 888.782,6.971 C941.643,2.432 994.173,0.441 1046.357,0.673 C1098.543,0.911 1150.384,3.376 1201.912,7.917 C1243.47,15.412 1281.055,25.901 1313.375,39.146 C1316.941,38.77 1320.646,38.463 1324.48,38.238 C1326.398,38.122 1328.348,38.029 1330.33,37.951 L1336.25,37.757 L1340.966,37.432 L1342.169,37.352 C1342.339,37.334 1342.634,37.336 1342.912,37.336 L1343.743,37.334 L1347.094,37.345 C1351.592,37.378 1356.207,37.496 1360.932,37.692 C1379.834,38.47 1400.476,40.556 1422.272,43.88 C1465.884,50.496 1514,62.207 1562.502,77.305 C1611.051,92.363 1659.996,110.735 1706.512,129.61 C1753.055,148.475 1797.224,167.797 1836.959,184.519 L1837.169,183.465 C1916.163,219.393 1992.991,257.903 2069.077,297.227 C2080.421,306.077 2090.917,315.039 2100.394,324.055 C2121.291,329.38 2141.05,339.178 2151.418,341.805 C2209.746,375.872 2257.057,406.934 2304.556,437.298 C2314.719,439.68 2335.989,439.889 2355.445,449.045 C2393.765,468.734 2431.247,486.049 2468.035,501.717 C2510.398,521.784 2553.176,541.096 2596.512,559.076 C2669.361,589.488 2741.821,615.419 2814.145,634.443 C2886.451,653.484 2958.605,665.529 3030.359,668.505 C3034.992,672.059 3036.208,676.556 3037.495,681.061 C3048.727,677.903 3062.158,677.031 3075.309,676.141 C3088.451,675.266 3101.313,674.368 3111.088,671.625 C3107.468,673.574 3105.246,675.633 3106.108,677.972 C3114.252,676.141 3121.542,674.567 3128.205,673.243 C3131.536,672.575 3134.71,671.976 3137.753,671.427 L3142.224,670.647 L3146.938,669.876 L3148.703,669.598 C3149.285,669.508 3149.892,669.41 3150.384,669.354 L3153.464,668.973 L3156.443,668.649 L3162.026,668.115 C3165.683,667.798 3169.239,667.524 3172.824,667.265 C3179.996,666.719 3187.296,666.202 3195.813,664.814 C3204.325,663.4 3214.077,661.135 3226.023,656.541 C3231.198,653.992 3235.707,650.384 3240.037,646.558 C3244.372,642.722 3248.532,638.663 3253.17,635.103 C3258.296,632.514 3263.433,629.746 3268.617,626.82 C3284.019,622.641 3298.694,615.886 3312.476,607.304 C3326.272,598.721 3339.193,588.317 3351.394,576.675 C3363.604,565.029 3375.091,552.132 3386.184,538.399 C3397.276,524.655 3407.967,510.066 3418.646,494.859 C3441.853,465.795 3462.651,434.457 3480.244,401.613 C3497.82,368.777 3512.211,334.388 3522.162,299.407 C3525.994,285.524 3529.29,273.859 3532.392,263.496 C3535.49,253.133 3538.38,244.074 3541.113,235.443 C3543.828,226.814 3546.378,218.617 3548.515,210.025 C3550.646,201.427 3552.374,192.438 3553.18,182.309 Z" id="Shape"></path>
                    <path d="M1653.349,121.857 C1731.824,155.342 1806.191,192.779 1878.137,231.726 C1838.431,212.826 1799.519,197.103 1762.013,180.261 C1724.468,163.414 1688.378,145.442 1653.349,121.857 Z" id="Shape"></path>
                    <path d="M1427.777,47.327 C1431.446,46.969 1435.968,46.953 1440.698,47.005 C1440.941,47.099 1441.15,47.145 1441.485,47.22 C1437.499,47.766 1432.859,47.739 1427.777,47.327 Z" id="Shape"></path>
                </g>
            </g>
        </g>
    </g>
</svg>